<?xml version="1.0" standalone="no"?>
<!DOCTYPE svg PUBLIC "-//W3C//DTD SVG 20010904//EN"
 "http://www.w3.org/TR/2001/REC-SVG-20010904/DTD/svg10.dtd">
<svg version="1.0" xmlns="http://www.w3.org/2000/svg"
 width="600.000000pt" height="600.000000pt" viewBox="0 0 600.000000 600.000000"
 preserveAspectRatio="xMidYMid meet">
<metadata>
Created by potrace 1.11, written by Peter Selinger 2001-2013
</metadata>
<g transform="translate(0.000000,600.000000) scale(0.100000,-0.100000)"
fill="#000000" stroke="none">
<path d="M2973 5755 c0 -8 4 -12 9 -9 5 3 6 10 3 15 -9 13 -12 11 -12 -6z"/>
<path d="M3070 5761 c0 -6 4 -13 10 -16 6 -3 7 1 4 9 -7 18 -14 21 -14 7z"/>
<path d="M2777 5743 c-2 -5 -3 -16 -2 -25 2 -12 -3 -18 -15 -18 -10 0 -21 -4
-24 -9 -4 -5 5 -6 19 -3 13 4 24 11 24 16 0 5 12 17 28 27 15 10 23 19 16 19
-6 0 -15 -4 -18 -10 -3 -5 -11 -10 -16 -10 -6 0 -7 5 -4 10 3 6 4 10 1 10 -3
0 -7 -3 -9 -7z"/>
<path d="M3230 5742 c0 -5 7 -9 15 -9 8 0 12 4 9 9 -3 4 -9 8 -15 8 -5 0 -9
-4 -9 -8z"/>
<path d="M3275 5741 c-3 -5 -2 -12 3 -15 5 -3 9 1 9 9 0 17 -3 19 -12 6z"/>
<path d="M2857 5729 c7 -7 15 -10 18 -7 3 3 -2 9 -12 12 -14 6 -15 5 -6 -5z"/>
<path d="M2998 5733 c7 -3 16 -2 19 1 4 3 -2 6 -13 5 -11 0 -14 -3 -6 -6z"/>
<path d="M3054 5732 c3 -5 0 -13 -6 -15 -9 -4 -10 -6 -1 -6 17 -1 25 16 12 25
-7 4 -9 3 -5 -4z"/>
<path d="M3095 5730 c-3 -6 1 -13 10 -16 12 -5 13 -9 3 -21 -6 -8 4 -4 24 9
37 24 44 37 11 20 -21 -11 -46 -5 -37 9 3 5 3 9 0 9 -3 0 -8 -5 -11 -10z"/>
<path d="M3180 5733 c0 -19 21 -27 33 -13 9 10 9 11 -2 5 -8 -4 -17 -2 -22 6
-6 9 -9 10 -9 2z"/>
<path d="M3353 5733 c4 -6 0 -14 -9 -17 -13 -5 -14 -9 -4 -22 20 -23 1 -34
-47 -27 -27 3 -44 11 -46 22 -4 14 -5 14 -6 -1 -1 -10 -9 -16 -22 -15 -18 1
-18 3 -5 13 9 6 16 15 16 19 0 4 -7 2 -15 -5 -12 -10 -18 -10 -30 0 -10 9 -15
9 -15 1 0 -6 5 -11 10 -11 6 0 10 -4 10 -8 0 -16 -30 -9 -31 7 0 12 -3 11 -9
-4 -5 -11 -9 -14 -9 -7 -1 9 -6 10 -17 4 -19 -11 -54 -4 -54 10 0 5 5 6 10 3
6 -3 10 -1 10 4 0 18 -17 12 -34 -11 -12 -16 -16 -18 -12 -5 3 9 1 17 -4 17
-6 0 -10 -4 -10 -9 0 -4 -18 -7 -40 -5 -24 2 -38 -1 -35 -6 4 -6 -3 -7 -17 -2
-28 10 -59 9 -75 -1 -8 -5 -13 -3 -13 4 0 8 -5 7 -17 -2 -9 -8 -14 -9 -10 -3
4 7 0 15 -8 18 -9 3 -18 -1 -21 -8 -3 -9 -18 -13 -37 -12 -18 1 -45 -2 -61 -6
-16 -4 -37 -3 -48 3 -14 7 -18 7 -14 1 3 -6 2 -13 -4 -17 -5 -3 -10 -1 -10 4
0 6 -5 11 -11 11 -5 0 -8 -4 -5 -9 3 -4 -5 -8 -17 -7 -12 1 -26 -3 -30 -9 -5
-6 -7 -3 -4 7 3 9 -1 24 -9 35 -14 17 -15 17 -5 -3 11 -23 3 -41 -19 -41 -8 0
-23 -4 -32 -8 -11 -4 -18 -3 -18 4 0 6 -5 11 -11 11 -5 0 -8 -4 -5 -9 6 -9
-67 -27 -91 -22 -7 1 -13 -4 -13 -11 -1 -7 -9 -2 -20 11 -11 13 -20 19 -20 14
0 -5 6 -15 12 -22 11 -12 9 -13 -7 -6 -11 4 -27 9 -36 12 -10 3 -15 12 -12 23
3 10 1 20 -4 23 -5 3 -8 -6 -7 -20 0 -18 9 -30 25 -37 23 -10 23 -10 -11 -13
-19 -2 -42 -7 -50 -10 -8 -3 -18 -5 -22 -5 -5 1 -8 -4 -8 -11 -1 -6 -10 -1
-20 12 -11 13 -20 18 -20 13 0 -6 5 -14 10 -17 6 -4 8 -11 5 -16 -3 -5 -16 0
-27 11 -12 11 -24 17 -27 14 -3 -3 2 -10 12 -15 9 -6 17 -15 17 -22 0 -7 -4
-6 -10 3 -8 12 -10 12 -16 -3 -5 -14 -9 -15 -23 -5 -9 7 -13 8 -8 3 4 -5 -7
-15 -24 -22 -28 -12 -33 -11 -50 10 -10 12 -18 16 -19 10 0 -7 5 -13 10 -13
17 0 11 -27 -7 -34 -11 -5 -23 0 -32 11 -12 15 -13 15 -8 1 3 -9 -1 -22 -10
-30 -14 -11 -15 -10 -9 12 7 23 6 23 -13 -5 -12 -16 -21 -27 -21 -23 0 4 -16
-1 -36 -12 l-35 -20 -19 22 c-11 13 -19 17 -20 11 0 -7 5 -13 11 -13 6 0 9 -8
7 -17 -5 -24 -21 -19 -30 9 -6 17 -6 14 -3 -9 2 -18 1 -32 -3 -31 -11 3 -106
-43 -114 -56 -4 -6 -8 -7 -8 -3 0 4 -15 -3 -32 -16 -18 -14 -39 -22 -45 -20
-7 3 -13 -2 -13 -11 0 -9 -4 -16 -10 -16 -21 0 -26 -2 -45 -19 -24 -22 -67
-46 -77 -43 -5 1 -8 -2 -8 -7 0 -5 -15 -18 -32 -30 -71 -45 -116 -77 -138 -98
-22 -21 -25 -22 -47 -8 -13 9 -23 11 -23 6 0 -5 7 -11 15 -15 8 -3 15 -10 15
-15 0 -6 -7 -8 -15 -4 -9 3 -15 1 -13 -4 3 -10 -69 -83 -75 -76 -3 2 -12 -8
-21 -22 -17 -25 -18 -26 -42 -10 -22 14 -25 14 -30 0 -3 -8 -10 -12 -15 -9 -5
3 -6 -3 -2 -12 4 -11 8 -13 11 -6 2 7 8 10 13 7 5 -4 6 2 2 12 -6 16 -5 16 10
4 21 -17 22 -31 2 -31 -8 0 -14 -4 -13 -8 2 -5 -30 -41 -69 -81 -40 -39 -73
-77 -73 -82 0 -6 -5 -7 -10 -4 -6 4 -1 15 12 27 20 17 19 17 -9 -2 -18 -12
-33 -27 -33 -33 0 -7 4 -6 10 3 5 8 10 11 10 5 0 -5 -4 -17 -10 -25 -7 -12
-12 -11 -28 8 -11 12 -23 22 -27 22 -5 0 2 -11 15 -25 20 -21 21 -27 9 -42 -7
-10 -14 -19 -15 -21 -1 -2 -11 1 -23 7 -27 15 -38 -4 -17 -28 16 -17 12 -31
-7 -31 -6 0 -7 3 -4 7 9 8 -12 33 -27 33 -6 0 -4 -5 4 -10 8 -5 11 -10 6 -10
-5 0 -2 -7 5 -16 11 -14 10 -18 -6 -30 -10 -8 -16 -14 -12 -14 15 0 -26 -50
-42 -51 -10 0 -11 -2 -3 -6 6 -2 10 -9 6 -14 -9 -15 -22 -10 -29 12 -7 21 -8
21 -24 -5 -10 -14 -21 -23 -26 -19 -4 5 -5 2 0 -6 6 -11 12 -9 26 10 15 20 19
21 19 7 0 -10 5 -18 11 -18 5 0 8 -4 4 -10 -3 -5 -12 -7 -20 -3 -8 3 -15 0
-15 -6 0 -6 5 -11 11 -11 6 0 -3 -19 -20 -42 -17 -23 -31 -48 -31 -55 0 -7 -4
-13 -9 -13 -5 0 -13 -9 -16 -20 -4 -11 -11 -17 -17 -14 -6 4 -5 10 3 15 8 5 9
9 3 9 -18 0 -24 -12 -13 -31 7 -13 6 -19 -1 -19 -6 0 -15 10 -20 23 -7 17 -9
18 -9 5 -1 -10 -5 -18 -11 -18 -5 0 -10 -5 -10 -11 0 -8 4 -8 14 0 10 8 16 8
24 -2 9 -10 5 -22 -14 -50 -13 -20 -22 -37 -18 -37 4 0 0 -8 -9 -18 -10 -10
-15 -21 -12 -24 3 -3 -1 -11 -10 -18 -8 -7 -15 -21 -15 -32 0 -10 -4 -16 -10
-13 -5 3 -10 -1 -10 -9 0 -8 -10 -18 -22 -22 -22 -7 -38 -21 -38 -36 0 -5 9 1
20 12 31 31 40 24 20 -17 -10 -21 -16 -41 -13 -46 2 -4 -7 -5 -21 -1 -16 4
-26 2 -26 -5 0 -6 6 -8 14 -5 18 7 30 -12 15 -22 -8 -5 -9 -3 -4 6 5 9 4 11
-4 6 -9 -6 -9 -11 0 -22 13 -16 -2 -19 -18 -3 -19 19 -26 -11 -7 -32 11 -12
13 -19 5 -19 -7 0 -10 -4 -6 -9 3 -5 1 -12 -4 -15 -5 -3 -7 -15 -4 -26 3 -12
0 -20 -6 -20 -7 0 -10 -4 -6 -9 3 -5 1 -12 -5 -16 -5 -3 -10 1 -10 9 0 20 -17
29 -26 15 -4 -7 -3 -10 2 -6 5 3 14 -6 21 -19 6 -13 8 -24 5 -24 -4 0 -8 -12
-9 -26 0 -14 -7 -46 -13 -70 -12 -42 -14 -43 -24 -23 -10 20 -29 29 -24 12 2
-5 5 -7 8 -6 3 1 10 -9 17 -23 6 -14 7 -24 1 -24 -5 0 -6 -5 -2 -11 4 -7 1
-10 -7 -7 -8 3 -13 14 -11 24 2 18 2 18 -8 1 -9 -14 -7 -22 12 -38 15 -14 18
-19 6 -15 -16 5 -35 -21 -23 -32 3 -3 5 0 5 6 0 7 4 12 8 12 5 0 9 -7 9 -15 0
-8 -4 -15 -9 -15 -5 0 -6 -5 -3 -10 4 -6 2 -17 -5 -25 -8 -9 -8 -15 0 -20 7
-4 7 -11 2 -18 -5 -7 -9 -21 -10 -32 -3 -32 -7 -49 -16 -64 -5 -8 -4 -16 4
-21 8 -5 9 -10 2 -14 -6 -4 -9 -15 -7 -26 2 -11 0 -21 -6 -21 -5 -1 -13 -2
-18 -3 -19 -2 -23 -16 -10 -32 8 -10 13 -20 12 -23 -1 -3 0 -8 2 -9 2 -2 2 3
1 12 -1 8 -5 19 -9 22 -11 12 -8 21 8 21 11 0 14 -10 12 -36 -2 -21 -8 -35
-15 -34 -6 2 -16 -6 -22 -17 -7 -14 -7 -20 0 -20 5 0 10 7 10 15 0 8 6 12 13
9 8 -3 14 -11 14 -19 0 -8 -4 -12 -7 -10 -4 3 -8 -7 -8 -20 0 -14 6 -25 12
-25 6 0 5 -4 -3 -9 -9 -6 -10 -11 -2 -15 7 -5 8 -14 3 -24 -5 -9 -8 -38 -7
-64 2 -27 1 -48 -2 -48 -2 0 -16 12 -30 28 -21 22 -24 23 -14 5 6 -12 19 -28
29 -35 10 -7 17 -20 17 -28 -1 -8 3 -24 8 -35 l10 -20 -23 20 -23 20 18 -28
c14 -21 15 -31 6 -40 -8 -8 -11 -7 -11 6 0 9 -5 17 -10 17 -7 0 -7 -6 0 -20 7
-13 16 -17 28 -13 13 5 11 0 -7 -20 -18 -19 -21 -30 -13 -39 6 -7 10 -17 10
-21 0 -5 3 -11 5 -14 3 -3 4 2 3 11 -1 8 -5 19 -9 22 -12 12 -8 24 7 18 8 -3
14 -19 14 -39 0 -18 3 -52 7 -76 5 -28 4 -39 -3 -35 -6 4 -16 -2 -22 -13 -7
-14 -7 -22 0 -26 6 -4 10 -3 9 2 -4 22 2 32 16 27 8 -4 15 -10 15 -16 0 -5 -4
-6 -10 -3 -5 3 -10 2 -10 -4 0 -5 6 -11 13 -14 9 -3 9 -7 -1 -19 -10 -13 -10
-18 -1 -24 8 -5 9 -3 4 6 -5 9 -4 11 4 6 6 -4 9 -12 5 -17 -3 -5 0 -17 8 -26
9 -12 9 -15 0 -9 -6 4 -12 2 -12 -3 0 -6 6 -11 13 -11 8 0 7 -3 -3 -10 -11 -7
-17 -4 -22 8 -7 14 -7 14 -5 -3 2 -12 9 -19 19 -17 9 1 20 -3 24 -9 4 -7 3 -9
-3 -6 -6 4 -14 0 -17 -9 -8 -21 -8 -24 5 -24 5 0 7 5 3 12 -4 7 -3 8 5 4 7 -5
9 -16 5 -28 -4 -15 -3 -18 6 -13 10 6 11 1 6 -19 -4 -15 -3 -25 2 -23 4 3 9
-2 10 -11 3 -31 8 -47 16 -60 4 -7 2 -20 -6 -29 -7 -9 -8 -14 -1 -10 12 8 37
-49 27 -64 -3 -5 -1 -9 4 -9 16 0 20 -36 6 -55 -17 -22 -18 -35 -4 -35 5 0 9
3 9 8 -3 18 2 32 12 32 6 0 9 -7 6 -15 -4 -8 -2 -17 4 -20 5 -4 7 -11 4 -16
-4 -5 -1 -9 4 -9 6 0 11 -9 11 -19 0 -11 5 -23 10 -26 8 -5 7 -11 -1 -21 -9
-11 -8 -14 5 -14 10 0 14 -5 11 -10 -4 -6 -11 -7 -17 -4 -7 5 -8 2 -3 -6 6 -9
4 -12 -7 -8 -8 4 -21 3 -27 -2 -9 -5 -4 -8 13 -8 15 0 29 4 32 9 3 5 10 9 16
9 6 0 6 -6 -2 -15 -7 -9 -10 -18 -6 -22 3 -3 6 -1 6 6 0 7 5 9 10 6 6 -4 8
-10 5 -15 -3 -4 0 -10 5 -12 6 -2 12 -10 14 -18 1 -8 14 -38 29 -67 15 -29 23
-54 18 -57 -5 -3 -9 -17 -9 -32 0 -17 3 -22 8 -13 5 6 5 19 2 28 -9 25 20 -2
41 -38 17 -30 17 -31 0 -26 -10 3 -8 0 5 -6 12 -7 22 -18 22 -26 0 -7 5 -13
10 -13 6 0 10 -9 10 -19 0 -11 6 -21 13 -24 6 -2 8 -8 4 -13 -5 -5 -15 -1 -23
10 -8 11 -14 15 -14 10 0 -6 6 -16 12 -23 11 -11 9 -12 -9 -6 -13 3 -23 2 -23
-3 0 -11 40 -9 58 2 11 6 34 -25 38 -53 2 -8 8 -18 16 -22 7 -4 9 -12 4 -16
-4 -4 -14 0 -21 11 -13 18 -14 18 -12 -2 1 -16 7 -19 30 -16 23 3 27 1 18 -10
-8 -9 -6 -18 5 -32 14 -18 15 -18 4 3 -6 14 -7 23 -1 23 12 0 24 -37 16 -50
-3 -5 -1 -10 5 -10 6 0 8 -5 4 -12 -4 -7 -3 -8 4 -4 6 4 8 14 5 24 -4 10 2 7
14 -8 11 -13 18 -31 15 -39 -3 -8 -1 -12 5 -8 6 4 16 1 22 -6 8 -11 6 -13 -10
-12 -11 1 -25 8 -30 16 -5 8 -9 10 -9 4 0 -15 16 -36 26 -34 5 1 20 1 33 0 18
-1 22 -5 18 -21 -3 -10 -2 -19 2 -18 27 3 31 -5 6 -17 l-30 -14 28 6 c21 4 34
0 53 -18 13 -12 24 -25 24 -29 0 -4 27 -34 60 -68 33 -34 60 -69 60 -78 0 -8
-5 -12 -11 -9 -6 4 -5 -2 3 -14 7 -12 16 -21 21 -21 4 0 5 -4 2 -10 -3 -5 -1
-10 4 -10 15 0 14 16 -4 33 -8 8 -11 17 -8 21 12 11 22 6 28 -14 3 -11 13 -20
21 -20 8 0 14 -5 14 -11 0 -5 -4 -8 -9 -4 -5 3 -16 -4 -24 -15 -7 -11 -17 -17
-22 -12 -5 4 -5 1 0 -7 6 -11 11 -9 24 8 14 18 19 19 30 9 11 -10 12 -10 7 0
-14 23 13 12 34 -16 12 -15 25 -27 28 -27 11 0 52 -39 52 -48 0 -4 -4 -6 -8
-3 -4 2 -14 0 -22 -6 -12 -8 -12 -9 2 -4 10 3 20 1 23 -4 4 -6 12 -10 18 -10
7 0 6 4 -3 10 -13 9 -13 10 0 10 8 0 21 -9 28 -21 7 -12 16 -18 19 -15 7 7 33
-19 33 -34 0 -6 4 -9 9 -6 5 3 14 -1 21 -9 7 -8 16 -12 21 -9 5 3 9 1 9 -4 0
-6 -7 -13 -16 -16 -23 -9 -24 -8 -18 12 4 9 -3 5 -13 -11 -11 -15 -23 -24 -28
-20 -4 5 -5 2 0 -6 7 -12 10 -11 20 2 10 14 16 13 54 -9 24 -13 45 -24 48 -24
12 0 -46 40 -59 40 -7 0 -5 5 6 12 15 8 21 8 24 0 2 -7 10 -12 18 -12 9 0 12
-5 9 -10 -3 -6 1 -10 10 -10 12 0 15 -6 10 -22 -5 -19 -4 -20 5 -6 10 16 12
16 40 0 16 -9 30 -20 30 -24 0 -5 5 -8 11 -8 7 0 18 -8 26 -17 10 -12 12 -13
8 -3 -5 12 -4 12 7 -1 14 -17 48 -33 62 -30 5 1 6 -6 2 -15 -4 -11 -2 -15 6
-11 17 6 58 -10 58 -23 0 -6 -12 -3 -27 7 l-28 17 25 -25 c18 -17 27 -21 33
-13 5 9 24 4 70 -18 76 -38 73 -36 59 -50 -7 -7 -12 -17 -12 -23 0 -5 5 -2 11
8 6 9 15 14 21 11 7 -5 8 -2 3 5 -4 8 4 7 24 -4 20 -10 29 -20 24 -28 -4 -8
-1 -8 9 1 14 11 18 10 29 -10 7 -13 11 -25 9 -28 -2 -3 4 -6 13 -8 9 -2 17 1
17 7 0 6 -6 8 -13 5 -8 -3 -13 4 -14 18 -2 16 0 19 6 10 5 -8 10 -13 12 -13 2
1 20 -4 39 -11 19 -7 39 -11 44 -10 5 2 6 -4 2 -13 -4 -11 -2 -14 7 -8 27 17
41 11 17 -7 -27 -21 -21 -27 9 -8 22 14 111 -9 111 -29 0 -7 5 -13 11 -13 5 0
8 4 5 8 -3 5 8 6 25 4 16 -2 29 -7 29 -11 0 -3 10 -7 23 -8 31 -3 50 -8 62
-15 6 -3 22 -6 37 -6 30 1 78 -26 78 -43 0 -6 -4 -8 -8 -5 -4 2 -14 0 -22 -5
-12 -7 -10 -8 7 -6 31 4 38 14 23 32 -8 9 -8 15 -2 15 6 0 13 -4 17 -10 3 -5
13 -6 22 -3 11 4 14 3 9 -5 -4 -7 -2 -12 3 -12 6 0 11 6 11 13 0 8 3 9 8 1 4
-6 15 -10 25 -8 9 1 17 -4 17 -12 0 -9 5 -12 10 -9 6 4 7 11 4 17 -5 7 -2 8 5
4 7 -5 10 -15 7 -23 -3 -8 -2 -11 3 -8 5 3 11 0 14 -7 2 -7 2 -3 0 10 -2 12 1
22 7 22 5 0 10 -5 10 -11 0 -8 4 -9 13 0 8 6 17 8 20 4 4 -3 -2 -12 -13 -20
-11 -8 -20 -18 -20 -23 0 -5 12 2 27 16 l28 26 17 -22 c20 -25 24 -19 7 12 -9
16 -8 19 3 12 17 -11 30 -13 98 -19 30 -2 72 -6 93 -8 21 -2 37 0 37 6 0 6 3
7 7 3 5 -4 -1 -14 -11 -22 -11 -8 -15 -14 -10 -14 6 0 16 6 22 13 7 6 33 12
58 13 24 0 39 -3 33 -7 -8 -5 -8 -8 0 -13 6 -4 9 -11 6 -16 -3 -4 2 -11 10
-14 13 -4 13 -2 5 14 -11 20 -3 53 11 45 4 -3 6 -13 3 -23 -5 -14 -4 -15 5 -2
12 17 37 20 65 7 13 -6 16 -6 12 2 -4 6 0 11 9 11 9 0 14 -4 10 -9 -13 -22 19
-22 36 0 17 22 19 23 19 4 0 -16 2 -17 9 -6 5 8 18 16 28 17 16 2 16 1 2 -9
-17 -13 -22 -47 -6 -47 5 0 7 6 4 14 -6 14 26 46 46 46 8 0 7 -4 -3 -10 -9 -6
-10 -10 -3 -10 7 0 16 7 20 15 5 9 13 11 22 6 11 -7 7 -13 -15 -25 -16 -8 -24
-15 -19 -15 6 -1 17 3 25 9 9 6 17 5 23 -3 6 -9 7 -8 6 3 -3 26 1 44 8 37 3
-4 12 -2 20 4 9 8 13 8 13 1 0 -6 -8 -16 -17 -21 -10 -6 -13 -11 -7 -11 5 0
15 5 21 11 8 8 15 4 27 -12 9 -13 16 -19 16 -15 0 5 -7 18 -17 28 -9 10 -11
18 -5 18 6 0 19 3 29 7 16 6 16 5 4 -10 -14 -18 -16 -16 35 -32 8 -3 12 0 9 5
-3 6 -15 10 -27 10 -32 0 -5 26 35 34 18 3 48 9 67 13 19 4 45 7 58 7 12 1 22
4 22 7 0 3 6 6 13 7 6 0 26 4 42 7 17 4 36 8 43 8 6 0 12 3 12 7 0 4 6 7 13 8
6 0 22 3 35 6 19 4 22 2 17 -22 -4 -22 -3 -21 8 6 7 18 16 30 20 26 3 -4 12
-2 19 4 7 6 35 16 61 22 26 7 47 16 47 20 0 10 20 8 37 -3 9 -6 11 -3 6 9 -4
12 -3 15 6 10 7 -5 11 -16 8 -25 -3 -13 3 -17 29 -16 17 0 30 4 27 8 -3 5 -14
7 -24 4 -12 -3 -19 0 -19 9 0 8 0 17 -1 21 0 4 5 9 12 12 7 2 9 -2 5 -10 -4
-8 -1 -7 5 3 11 14 15 15 36 1 20 -14 23 -14 29 1 3 9 11 13 17 9 6 -3 7 -1 3
5 -10 17 -26 15 -26 -3 0 -9 -6 -12 -15 -9 -8 4 -15 10 -15 16 0 5 5 6 10 3 6
-3 10 -2 10 3 0 16 33 24 42 10 5 -10 8 -8 8 5 0 10 4 16 9 13 5 -4 11 -1 13
6 3 8 7 6 11 -5 4 -11 1 -17 -8 -17 -18 0 -20 -16 -3 -26 6 -4 8 -3 5 3 -4 6
-1 13 7 16 9 4 13 14 9 29 l-5 23 21 -25 c12 -14 19 -18 16 -9 -4 10 3 20 19
29 14 7 24 16 21 19 -2 4 11 13 28 21 18 7 35 18 38 23 3 5 9 2 12 -7 4 -10 1
-16 -8 -16 -8 0 -15 -5 -15 -10 0 -7 6 -7 18 -1 24 13 48 41 34 41 -6 0 -13
-6 -15 -12 -3 -8 -6 -5 -6 6 -1 14 4 17 23 14 18 -4 23 -1 18 10 -3 10 -1 13
6 8 7 -4 12 -3 12 3 0 17 82 53 94 41 5 -5 14 -10 20 -10 5 0 2 6 -8 13 -17
13 -16 15 17 36 34 21 64 21 52 0 -4 -5 -1 -9 4 -9 14 0 14 13 0 27 -7 7 2 19
32 42 43 31 69 39 69 21 0 -5 -8 -7 -17 -3 -10 3 -15 3 -11 -1 3 -4 14 -9 25
-11 10 -1 17 -8 15 -15 -1 -6 2 -9 8 -5 7 4 2 18 -12 38 -12 17 -17 27 -10 23
7 -4 12 -2 12 3 0 6 6 10 13 8 6 -1 11 5 9 13 -2 8 0 12 3 8 4 -4 16 3 26 15
22 27 25 10 3 -21 -8 -12 -12 -22 -7 -23 4 -1 -3 -5 -17 -10 l-25 -8 25 2 c14
1 25 7 25 14 0 6 3 15 8 19 4 4 7 0 7 -9 0 -9 4 -19 10 -22 7 -4 7 3 0 20 -13
35 -13 40 5 25 10 -9 15 -9 15 -1 0 6 -4 11 -10 11 -21 0 -9 30 18 44 15 8 23
15 17 16 -5 0 2 8 15 17 14 10 28 17 33 15 4 -1 7 6 7 16 1 15 2 15 11 -2 8
-13 8 -20 -1 -26 -9 -5 -8 -9 3 -13 21 -8 28 2 16 25 -6 11 -8 26 -5 34 6 17
37 19 53 3 16 -16 27 7 13 28 -9 15 -10 15 -5 -5 6 -21 5 -22 -14 -10 -20 12
-20 13 7 38 15 15 30 25 33 23 4 -1 9 7 12 18 3 12 10 18 16 14 6 -3 11 -1 11
5 0 6 14 24 30 40 17 16 30 32 30 36 0 13 65 62 75 57 5 -3 5 -1 -1 6 -8 9 -2
22 25 50 40 43 144 184 181 246 13 22 27 42 30 45 4 3 9 13 13 23 5 14 11 16
26 8 10 -6 21 -7 25 -4 3 3 6 1 6 -5 0 -5 -5 -12 -12 -14 -8 -3 -7 -6 4 -10
11 -5 15 0 14 14 -1 12 -9 22 -19 24 -28 4 -29 8 -11 45 22 45 21 44 39 29 12
-10 19 -10 27 -2 7 7 8 12 2 12 -5 1 2 7 15 14 20 11 21 14 7 19 -10 4 -15 3
-12 -2 3 -5 -1 -12 -10 -15 -8 -3 -12 -11 -8 -17 4 -7 2 -10 -6 -7 -17 5 -22
39 -8 55 6 7 15 10 21 6 7 -4 8 0 3 12 -9 25 19 66 42 58 14 -5 13 -3 -3 10
-23 18 -13 22 15 7 16 -8 18 -8 14 5 -3 8 -10 13 -14 10 -5 -3 -11 -1 -15 5
-3 5 -1 10 5 10 6 0 9 4 5 9 -3 5 -1 12 5 16 5 3 10 14 10 23 0 9 14 25 30 34
28 16 42 48 20 48 -5 0 -6 -7 -3 -17 5 -12 3 -14 -7 -8 -8 5 -11 4 -7 -2 4 -6
0 -14 -9 -17 -8 -3 -13 -2 -10 3 3 4 10 20 16 35 8 23 13 25 30 16 13 -7 20
-7 20 0 0 5 -7 10 -16 10 -12 0 -15 6 -9 23 3 12 7 28 7 34 1 7 10 15 20 19
10 3 18 10 18 16 0 6 -6 6 -15 -2 -10 -9 -15 -9 -15 -1 0 6 5 11 11 11 6 0 9
6 6 14 -3 8 0 20 8 26 7 6 11 20 8 30 -3 12 0 20 6 20 7 0 9 -6 6 -12 -4 -7 2
-3 13 9 11 12 22 20 24 18 11 -11 4 31 -7 45 -14 16 -16 50 -4 50 4 0 11 -4
14 -10 3 -5 1 -10 -6 -10 -7 0 -10 -2 -7 -5 3 -3 13 -3 22 1 15 6 15 8 -4 21
-15 11 -18 18 -10 32 5 11 11 32 12 49 1 17 6 28 10 26 4 -3 8 -1 8 4 0 6 7
13 16 16 12 4 15 2 10 -9 -3 -8 -1 -15 5 -15 6 0 9 8 7 18 -4 18 -10 19 -43 6
-17 -7 -18 -5 -8 8 7 8 9 19 5 23 -4 5 1 5 11 2 9 -4 17 -2 17 3 0 6 -4 10
-10 10 -5 0 -8 10 -6 22 3 13 5 30 5 38 1 13 2 13 11 0 5 -8 10 -10 10 -5 0 6
-5 16 -12 23 -7 7 -8 12 -2 12 5 0 10 19 10 43 3 80 7 116 14 112 3 -2 12 1
20 7 12 8 12 9 -2 4 -10 -3 -20 -1 -23 4 -4 6 -1 11 4 11 6 1 16 2 23 3 6 0
13 8 15 16 3 9 1 11 -4 5 -11 -13 -33 -17 -33 -6 0 5 6 12 13 14 10 4 10 6 0
6 -16 1 -17 41 -2 41 5 0 8 -4 5 -9 -3 -5 1 -14 9 -21 10 -9 15 -9 15 -1 0 6
-5 11 -11 11 -5 0 -7 5 -4 10 3 6 0 13 -8 16 -15 5 -16 43 -1 78 5 14 4 17 -5
11 -10 -6 -11 -3 -2 14 9 16 9 21 -1 22 -7 0 -3 4 10 9 24 10 29 25 10 36 -8
5 -9 2 -5 -9 3 -10 2 -17 -3 -17 -6 0 -10 3 -11 8 0 4 -2 17 -3 30 -2 13 1 25
6 28 4 3 5 10 2 16 -4 5 -7 25 -9 44 -2 28 1 34 14 29 14 -4 14 -4 1 7 -9 7
-16 27 -17 45 0 17 -3 59 -7 92 -7 58 -6 62 16 71 21 10 21 10 -4 5 -23 -4
-28 -2 -28 15 0 11 5 20 11 20 5 0 8 -3 6 -7 -3 -5 7 -9 21 -9 26 -2 26 -1 -5
14 -18 9 -34 24 -34 34 -2 26 -3 32 -12 45 -4 6 -4 18 -1 26 3 8 0 18 -7 22
-8 5 -2 12 17 21 17 8 20 12 7 8 -12 -2 -24 0 -28 6 -3 5 1 10 9 10 9 0 16 4
16 9 0 5 -9 7 -20 4 -14 -4 -20 0 -20 11 0 10 6 14 18 10 13 -4 13 -2 -3 8
-11 7 -21 24 -22 38 -1 14 0 19 3 13 3 -7 10 -13 15 -13 5 0 4 9 -3 19 -7 11
-16 17 -20 15 -7 -5 -13 26 -9 49 0 4 -3 7 -9 7 -5 0 -10 5 -10 11 0 5 4 8 9
5 5 -3 11 0 14 8 4 10 -1 12 -16 9 -22 -5 -22 -5 -2 11 11 10 14 15 8 11 -7
-3 -13 -1 -13 5 0 6 -4 9 -8 6 -5 -3 -9 0 -9 7 0 7 -4 19 -7 28 -4 10 0 23 10
33 9 9 14 20 10 23 -3 4 -13 -2 -22 -13 -14 -18 -15 -18 -9 4 5 16 2 27 -9 35
-9 7 -17 21 -19 32 -2 11 -13 40 -24 65 -18 40 -19 48 -7 67 17 27 17 33 3 33
-5 0 -8 -4 -5 -9 3 -5 -1 -14 -9 -21 -11 -9 -15 -9 -16 -1 -4 30 -41 111 -51
111 -5 0 -3 6 4 14 7 8 16 12 20 10 3 -2 5 4 4 13 -2 9 -9 19 -17 21 -11 3
-11 1 1 -7 14 -10 7 -16 -13 -12 -5 1 -5 -4 -1 -10 5 -8 3 -9 -5 -5 -7 5 -10
14 -7 22 3 8 -1 14 -10 14 -8 0 -13 4 -9 9 3 5 -2 17 -11 25 -8 9 -12 16 -8
16 4 0 0 8 -9 18 -10 10 -14 22 -10 25 3 4 1 7 -5 7 -10 0 -28 38 -24 53 1 4
-6 7 -15 7 -15 0 -16 2 -3 10 12 7 12 10 1 10 -8 0 -11 6 -7 16 6 15 4 15 -11
3 -15 -12 -16 -12 -11 3 4 10 1 19 -9 22 -9 4 -13 13 -9 22 3 8 2 13 -3 10
-11 -7 -44 42 -36 54 4 6 -1 7 -12 3 -16 -6 -17 -5 -3 13 8 10 10 16 6 12 -9
-8 -56 36 -56 53 0 5 -5 8 -12 7 -6 -2 -14 5 -16 15 -2 10 -14 29 -28 42 -13
13 -24 29 -24 35 0 6 -5 8 -12 4 -7 -4 -8 -3 -4 4 4 7 1 12 -7 12 -8 0 -18 11
-21 25 -4 14 -11 23 -16 20 -6 -3 -10 1 -10 9 0 9 -7 16 -15 16 -8 0 -15 6
-15 13 0 7 -13 23 -30 35 -16 13 -30 29 -30 38 0 8 -4 12 -10 9 -5 -3 -10 -1
-10 5 0 6 -5 8 -10 5 -6 -4 -10 -3 -9 2 3 18 -1 36 -8 30 -14 -14 -43 26 -38
52 5 25 5 25 -4 4 -13 -28 -25 -30 -18 -4 3 11 -1 22 -9 25 -9 3 -11 0 -7 -11
4 -11 2 -14 -5 -9 -7 4 -12 18 -12 30 0 13 -6 29 -14 36 -8 6 -12 19 -9 28 5
14 3 15 -7 5 -10 -9 -10 -15 -2 -26 7 -8 8 -18 4 -22 -4 -5 -1 -5 6 -1 7 4 12
1 12 -8 0 -14 -3 -14 -20 -4 -10 7 -17 14 -15 17 3 2 -9 12 -25 22 -17 11 -30
24 -30 29 0 6 5 8 11 5 6 -4 5 2 -2 13 -7 12 -16 19 -20 16 -4 -2 -10 3 -13
12 -8 21 -8 26 2 20 4 -2 14 0 22 5 11 7 8 8 -10 5 -17 -2 -25 -9 -25 -24 0
-11 -4 -24 -9 -29 -5 -4 -7 -3 -3 2 3 6 -8 17 -24 24 -16 7 -27 16 -24 21 3 4
-6 11 -20 14 -14 4 -25 11 -25 16 0 5 6 7 14 4 19 -7 25 7 15 31 -9 18 -9 18
-5 -2 5 -25 -9 -32 -17 -9 -3 7 1 24 10 37 8 13 1 9 -15 -10 l-29 -34 -23 21
c-13 12 -27 19 -31 16 -5 -3 -20 7 -33 21 -14 15 -33 28 -43 30 -10 2 -20 4
-23 4 -3 1 2 6 10 12 12 8 10 9 -7 4 -17 -5 -23 -2 -24 9 -1 9 -2 20 -3 26 -1
11 -37 39 -51 39 -5 0 -2 -4 8 -10 9 -6 15 -14 12 -20 -3 -5 0 -6 7 -4 9 4 14
-3 15 -17 0 -13 -1 -17 -4 -10 -3 6 -11 12 -19 12 -8 0 -14 5 -14 11 0 6 -7
17 -15 25 -8 9 -15 11 -15 5 0 -6 -7 -11 -15 -11 -18 0 -20 17 -3 22 6 2 12
15 14 29 1 13 1 19 -2 13 -3 -7 -15 -10 -27 -8 -20 4 -20 4 2 -6 23 -10 23
-11 6 -24 -16 -11 -26 -9 -74 16 -31 16 -56 33 -56 36 0 4 -4 13 -9 21 -7 11
-5 13 7 8 9 -3 18 -3 21 1 9 16 -33 10 -46 -6 -8 -10 -9 -13 -1 -9 6 4 15 2
19 -4 10 -16 -46 -2 -66 16 -8 7 -19 14 -24 14 -6 0 -11 8 -12 17 -1 9 -6 19
-10 22 -4 4 -4 -1 -1 -10 3 -10 2 -20 -3 -23 -4 -3 -10 -1 -12 4 -1 6 -14 12
-28 15 -41 7 -64 19 -78 38 -7 10 -21 18 -30 17 -12 0 -11 -3 6 -9 30 -12 28
-22 -2 -10 -13 5 -27 6 -30 3 -3 -4 -6 -2 -6 4 0 11 -54 28 -82 25 -10 -1 -18
3 -18 9 0 5 -4 7 -10 4 -5 -3 -10 -1 -10 5 0 7 -8 9 -19 5 -11 -3 -22 -1 -25
4 -4 6 -14 7 -23 4 -12 -5 -14 -3 -8 6 5 10 2 11 -13 7 -15 -5 -28 0 -43 15
-16 16 -21 18 -16 6 3 -9 2 -17 -3 -17 -6 0 -10 4 -10 9 0 5 -11 8 -25 5 -14
-2 -25 0 -25 6 0 6 4 8 10 5 6 -4 7 1 3 11 -5 14 -7 14 -17 -5 -11 -20 -13
-20 -29 -4 -9 10 -17 13 -17 7 0 -7 -15 -7 -50 0 -39 8 -52 15 -60 35 -9 22
-10 22 -6 4 2 -13 0 -26 -5 -29 -5 -3 -9 -1 -9 5 0 6 -7 7 -17 4 -11 -4 -14
-3 -9 6 4 6 2 18 -4 26 -10 12 -9 15 4 15 19 0 21 16 4 26 -6 4 -8 3 -5 -3z
m1012 -393 c3 -5 1 -10 -4 -10 -6 0 -11 5 -11 10 0 6 2 10 4 10 3 0 8 -4 11
-10z m257 -162 c-7 -7 -12 -8 -12 -2 0 14 12 26 19 19 2 -3 -1 -11 -7 -17z
m142 -99 c-6 -11 -24 -2 -24 11 0 5 7 7 15 4 8 -4 12 -10 9 -15z m-3967 -455
c-7 -7 -37 7 -37 17 0 6 9 5 21 -1 11 -7 19 -14 16 -16z m-431 -751 c-7 -7
-26 7 -26 19 0 6 6 6 15 -2 9 -7 13 -15 11 -17z m5349 -1683 c7 -12 -19 -53
-28 -43 -12 12 -7 23 11 24 10 0 12 3 5 6 -15 6 -17 23 -4 23 6 0 13 -4 16
-10z m-1475 -1715 c0 -2 -10 -10 -22 -16 -21 -11 -22 -11 -9 4 13 16 31 23 31
12z m-1080 -280 c0 -8 -4 -15 -10 -15 -5 0 -7 7 -4 15 4 8 8 15 10 15 2 0 4
-7 4 -15z"/>
<path d="M2535 5719 c-3 -4 2 -6 10 -5 21 3 28 13 10 13 -9 0 -18 -4 -20 -8z"/>
<path d="M2710 5703 c-24 -25 -24 -26 -2 -14 12 6 22 16 22 22 0 6 5 7 12 3 7
-4 8 -3 4 4 -9 15 -7 16 -36 -15z"/>
<path d="M2831 5714 c0 -11 3 -14 6 -6 3 7 2 16 -1 19 -3 4 -6 -2 -5 -13z"/>
<path d="M2890 5725 c0 -8 29 -12 39 -5 9 5 4 8 -13 8 -14 0 -26 -2 -26 -3z"/>
<path d="M2971 5714 c0 -11 3 -14 6 -6 3 7 2 16 -1 19 -3 4 -6 -2 -5 -13z"/>
<path d="M3410 5720 c-11 -7 -11 -10 -2 -10 8 0 10 -5 6 -12 -4 -7 -3 -9 1 -5
7 6 17 37 12 37 -1 0 -9 -5 -17 -10z"/>
<path d="M2675 5710 c-3 -5 -1 -10 4 -10 6 0 11 5 11 10 0 6 -2 10 -4 10 -3 0
-8 -4 -11 -10z"/>
<path d="M3005 5710 c-16 -7 -17 -9 -3 -9 9 -1 20 4 23 9 7 11 7 11 -20 0z"/>
<path d="M2570 5706 c0 -3 9 -10 20 -16 11 -6 20 -8 20 -6 0 3 -9 10 -20 16
-11 6 -20 8 -20 6z"/>
<path d="M2616 5699 c3 -5 14 -9 24 -9 10 0 21 -5 23 -10 3 -6 4 -5 3 2 -1 6
-14 15 -29 19 -16 4 -25 3 -21 -2z"/>
<path d="M2850 5699 c0 -5 5 -7 10 -4 6 3 10 8 10 11 0 2 -4 4 -10 4 -5 0 -10
-5 -10 -11z"/>
<path d="M2880 5706 c0 -2 7 -7 16 -10 8 -3 12 -2 9 4 -6 10 -25 14 -25 6z"/>
<path d="M2930 5700 c0 -5 5 -10 11 -10 5 0 7 5 4 10 -3 6 -8 10 -11 10 -2 0
-4 -4 -4 -10z"/>
<path d="M3290 5705 c0 -13 20 -35 32 -35 4 0 8 5 8 12 0 6 -3 8 -7 5 -3 -4
-12 1 -19 11 -7 9 -14 12 -14 7z"/>
<path d="M3477 5690 c-9 -11 -13 -20 -7 -20 5 0 14 9 20 20 6 11 9 20 8 20 -2
0 -11 -9 -21 -20z"/>
<path d="M3545 5700 c-3 -6 1 -7 9 -4 18 7 21 14 7 14 -6 0 -13 -4 -16 -10z"/>
<path d="M2399 5698 c-5 -19 -8 -50 -4 -46 7 7 15 48 9 48 -2 0 -4 -1 -5 -2z"/>
<path d="M2498 5677 c5 -20 4 -20 -11 -8 -11 9 -17 10 -17 2 0 -6 5 -11 11
-11 5 0 7 -5 3 -12 -4 -7 -3 -8 4 -4 22 13 33 44 18 49 -10 4 -12 -1 -8 -16z"/>
<path d="M3513 5682 c0 -18 14 -32 32 -32 6 1 2 7 -7 14 -10 7 -15 15 -12 18
3 4 1 8 -4 12 -5 3 -9 -3 -9 -12z"/>
<path d="M2353 5674 c0 -7 6 -10 14 -7 7 3 13 8 13 12 0 4 -6 8 -13 8 -8 0
-14 -6 -14 -13z"/>
<path d="M2438 5672 c3 -9 1 -13 -5 -9 -5 3 -17 -3 -26 -14 -9 -10 -12 -19 -7
-19 6 0 13 7 16 15 4 8 10 13 15 10 4 -3 12 3 18 13 7 14 6 19 -4 19 -7 0 -11
-7 -7 -15z"/>
<path d="M2567 5679 c7 -7 15 -10 18 -7 3 3 -2 9 -12 12 -14 6 -15 5 -6 -5z"/>
<path d="M3425 5679 c-11 -16 -1 -19 13 -3 7 8 8 14 3 14 -5 0 -13 -5 -16 -11z"/>
<path d="M3570 5680 c0 -5 5 -10 11 -10 5 0 7 5 4 10 -3 6 -8 10 -11 10 -2 0
-4 -4 -4 -10z"/>
<path d="M3485 5660 c-3 -5 -1 -10 4 -10 6 0 11 5 11 10 0 6 -2 10 -4 10 -3 0
-8 -4 -11 -10z"/>
<path d="M3645 5660 c-10 -16 14 -50 30 -44 8 4 15 8 15 11 0 3 -7 2 -16 -1
-12 -5 -15 -2 -10 9 4 11 2 14 -6 9 -8 -5 -9 -2 -5 9 7 18 2 23 -8 7z"/>
<path d="M3590 5650 c0 -5 5 -10 10 -10 6 0 10 5 10 10 0 6 -4 10 -10 10 -5 0
-10 -4 -10 -10z"/>
<path d="M2200 5635 c-7 -9 -8 -15 -2 -15 5 0 12 7 16 15 3 8 4 15 2 15 -2 0
-9 -7 -16 -15z"/>
<path d="M2235 5639 c-4 -6 -5 -12 -2 -15 2 -3 7 2 10 11 7 17 1 20 -8 4z"/>
<path d="M2330 5640 c0 -5 5 -10 10 -10 6 0 10 5 10 10 0 6 -4 10 -10 10 -5 0
-10 -4 -10 -10z"/>
<path d="M3700 5630 c11 -21 30 -27 30 -9 0 5 -4 7 -10 4 -5 -3 -10 1 -10 9 0
9 -5 16 -10 16 -7 0 -7 -6 0 -20z"/>
<path d="M3742 5637 c16 -13 16 -15 0 -31 -16 -17 -16 -18 6 -5 12 8 22 17 22
21 0 4 -10 12 -22 18 -20 10 -21 10 -6 -3z"/>
<path d="M3770 5646 c0 -2 7 -7 16 -10 8 -3 12 -2 9 4 -6 10 -25 14 -25 6z"/>
<path d="M3823 5638 c-4 -7 -8 -20 -8 -28 0 -8 -4 -22 -10 -30 -7 -13 -6 -13
7 -2 9 7 15 22 13 32 -2 11 4 24 13 30 9 5 12 10 5 10 -6 0 -15 -6 -20 -12z"/>
<path d="M2120 5611 c0 -6 4 -13 10 -16 6 -3 7 1 4 9 -7 18 -14 21 -14 7z"/>
<path d="M3780 5605 c0 -8 4 -15 10 -15 5 0 7 7 4 15 -4 8 -8 15 -10 15 -2 0
-4 -7 -4 -15z"/>
<path d="M2170 5600 c0 -5 5 -10 10 -10 6 0 10 5 10 10 0 6 -4 10 -10 10 -5 0
-10 -4 -10 -10z"/>
<path d="M2205 5600 c-3 -6 1 -7 9 -4 18 7 21 14 7 14 -6 0 -13 -4 -16 -10z"/>
<path d="M3850 5598 c0 -11 12 -10 30 2 12 7 10 9 -8 7 -12 0 -22 -5 -22 -9z"/>
<path d="M3956 5602 c-3 -5 1 -9 9 -9 8 0 12 4 9 9 -3 4 -7 8 -9 8 -2 0 -6 -4
-9 -8z"/>
<path d="M1975 5581 c-3 -5 -2 -12 3 -15 5 -3 9 1 9 9 0 17 -3 19 -12 6z"/>
<path d="M2057 5565 c4 -17 1 -25 -7 -23 -7 2 -15 -4 -17 -12 -4 -12 -3 -12 5
-2 5 8 13 13 18 11 13 -4 18 31 6 43 -6 6 -8 0 -5 -17z"/>
<path d="M3873 5577 c-3 -5 -2 -11 1 -14 3 -4 6 -1 6 6 0 7 5 9 10 6 6 -4 7
-11 4 -17 -4 -7 -2 -8 5 -4 6 4 9 11 6 16 -3 4 1 10 7 13 7 3 3 4 -10 4 -13
-1 -26 -5 -29 -10z"/>
<path d="M3942 5577 c10 -8 14 -18 10 -22 -4 -5 -1 -5 6 -1 17 10 15 14 -10
26 -21 10 -21 10 -6 -3z"/>
<path d="M2090 5571 c0 -6 4 -13 10 -16 6 -3 7 1 4 9 -7 18 -14 21 -14 7z"/>
<path d="M3830 5576 c0 -2 7 -7 16 -10 8 -3 12 -2 9 4 -6 10 -25 14 -25 6z"/>
<path d="M3983 5568 c4 -10 2 -18 -3 -18 -6 0 -10 -5 -10 -11 0 -8 6 -7 16 2
15 12 16 11 10 -11 -6 -21 -5 -22 4 -7 9 13 7 22 -6 40 -11 15 -15 16 -11 5z"/>
<path d="M2010 5558 c0 -11 12 -10 30 2 12 7 10 9 -8 7 -12 0 -22 -5 -22 -9z"/>
<path d="M4018 5558 c5 -5 16 -8 23 -6 8 3 3 7 -10 11 -17 4 -21 3 -13 -5z"/>
<path d="M1955 5549 c-4 -6 -5 -12 -2 -15 2 -3 7 2 10 11 7 17 1 20 -8 4z"/>
<path d="M4096 5536 c5 -13 4 -17 -4 -12 -8 5 -10 2 -5 -10 6 -15 7 -15 16 1
6 11 5 21 -3 28 -8 9 -9 7 -4 -7z"/>
<path d="M1891 5508 c9 -16 29 -17 29 -2 0 3 -5 2 -12 -2 -7 -5 -9 -2 -6 8 4
8 0 15 -7 15 -10 0 -11 -5 -4 -19z"/>
<path d="M4016 5514 c-5 -14 -4 -15 9 -4 17 14 19 20 6 20 -5 0 -12 -7 -15
-16z"/>
<path d="M4134 5513 c2 -9 8 -18 15 -19 6 -1 7 0 1 3 -5 2 -8 9 -5 13 3 5 1
11 -4 14 -5 4 -8 -2 -7 -11z"/>
<path d="M1980 5510 c-9 -6 -10 -10 -3 -10 6 0 15 5 18 10 8 12 4 12 -15 0z"/>
<path d="M1781 5500 c-9 -5 -4 -7 13 -7 29 0 32 2 13 10 -8 3 -20 2 -26 -3z"/>
<path d="M1873 5484 c0 -17 2 -22 7 -13 5 6 6 18 3 26 -8 19 -10 16 -10 -13z"/>
<path d="M1820 5480 c-18 -12 -2 -12 25 0 13 6 15 9 5 9 -8 0 -22 -4 -30 -9z"/>
<path d="M4108 5483 c7 -3 16 -2 19 1 4 3 -2 6 -13 5 -11 0 -14 -3 -6 -6z"/>
<path d="M4160 5480 c-8 -5 -10 -10 -5 -10 6 0 17 5 25 10 8 5 11 10 5 10 -5
0 -17 -5 -25 -10z"/>
<path d="M4226 5455 c-19 -29 -20 -35 -5 -35 5 0 7 5 4 10 -3 6 0 13 8 16 7 2
14 11 14 19 0 20 -2 19 -21 -10z"/>
<path d="M1840 5460 c-8 -5 -12 -12 -9 -15 4 -3 12 1 19 10 14 17 11 19 -10 5z"/>
<path d="M4125 5460 c3 -5 11 -10 16 -10 6 0 7 5 4 10 -3 6 -11 10 -16 10 -6
0 -7 -4 -4 -10z"/>
<path d="M4260 5445 c-14 -8 -20 -14 -14 -15 5 0 19 7 30 15 24 18 16 19 -16
0z"/>
<path d="M1717 5439 c7 -7 15 -10 18 -7 3 3 -2 9 -12 12 -14 6 -15 5 -6 -5z"/>
<path d="M4306 5442 c-3 -4 4 -9 15 -9 23 -2 25 3 4 10 -8 4 -16 3 -19 -1z"/>
<path d="M1695 5430 c6 -10 4 -12 -11 -6 -15 6 -17 5 -6 -5 9 -9 15 -10 23 -2
8 8 7 13 -2 18 -8 6 -10 4 -4 -5z"/>
<path d="M1745 5419 c-4 -6 -5 -12 -2 -15 2 -3 7 2 10 11 7 17 1 20 -8 4z"/>
<path d="M4270 5420 c0 -5 5 -10 10 -10 6 0 10 5 10 10 0 6 -4 10 -10 10 -5 0
-10 -4 -10 -10z"/>
<path d="M1654 5397 c2 -28 32 -25 61 6 l20 21 -20 -15 c-31 -25 -58 -32 -52
-14 4 8 2 17 -2 19 -5 3 -8 -5 -7 -17z"/>
<path d="M1610 5406 c0 -2 7 -7 16 -10 8 -3 12 -2 9 4 -6 10 -25 14 -25 6z"/>
<path d="M4365 5399 c-4 -6 -5 -12 -2 -15 2 -3 7 2 10 11 7 17 1 20 -8 4z"/>
<path d="M1595 5380 c3 -5 8 -10 11 -10 2 0 4 5 4 10 0 6 -5 10 -11 10 -5 0
-7 -4 -4 -10z"/>
<path d="M1622 5360 c0 -14 2 -19 5 -12 2 6 2 18 0 25 -3 6 -5 1 -5 -13z"/>
<path d="M1565 5359 c-4 -6 -4 -13 -1 -16 3 -4 6 -1 6 6 0 7 5 9 10 6 6 -3 10
-1 10 4 0 14 -17 14 -25 0z"/>
<path d="M4430 5360 c0 -5 5 -10 10 -10 6 0 10 5 10 10 0 6 -4 10 -10 10 -5 0
-10 -4 -10 -10z"/>
<path d="M4465 5360 c-3 -6 1 -7 9 -4 18 7 21 14 7 14 -6 0 -13 -4 -16 -10z"/>
<path d="M1588 5336 c-10 -7 -15 -16 -12 -19 4 -3 13 1 21 9 20 19 13 26 -9
10z"/>
<path d="M1486 5321 c-13 -14 -14 -21 -5 -27 8 -4 10 -3 5 4 -4 7 -3 12 2 12
6 0 12 7 16 15 7 20 3 19 -18 -4z"/>
<path d="M4445 5329 c-11 -16 -1 -19 13 -3 7 8 8 14 3 14 -5 0 -13 -5 -16 -11z"/>
<path d="M4476 5321 c-18 -7 -18 -8 -3 -14 9 -3 17 -2 17 4 0 6 5 7 12 3 7 -4
8 -3 4 4 -4 7 -8 12 -9 11 -1 0 -11 -4 -21 -8z"/>
<path d="M1510 5299 c-7 -11 -10 -23 -7 -25 2 -2 9 7 15 21 14 30 7 33 -8 4z"/>
<path d="M1450 5305 c0 -4 9 -18 20 -32 11 -14 20 -22 20 -18 0 4 -9 18 -20
32 -11 14 -20 22 -20 18z"/>
<path d="M1537 5303 c-4 -3 -7 -11 -7 -17 0 -6 5 -5 12 2 6 6 9 14 7 17 -3 3
-9 2 -12 -2z"/>
<path d="M4536 5298 c3 -5 10 -6 15 -3 13 9 11 12 -6 12 -8 0 -12 -4 -9 -9z"/>
<path d="M4570 5301 c0 -6 4 -13 10 -16 6 -3 7 1 4 9 -7 18 -14 21 -14 7z"/>
<path d="M1394 5288 c-4 -6 0 -16 8 -22 8 -6 15 -15 16 -21 1 -5 9 -11 19 -12
15 -2 15 -1 -2 6 -11 5 -15 10 -10 11 6 0 2 7 -9 15 -10 7 -15 18 -11 24 3 6
4 11 1 11 -3 0 -8 -5 -12 -12z"/>
<path d="M4495 5291 c-4 -7 0 -8 11 -4 12 4 15 3 10 -5 -4 -7 -2 -12 4 -12 14
0 8 22 -7 27 -6 2 -14 -1 -18 -6z"/>
<path d="M4599 5273 c-13 -16 -12 -17 4 -4 16 13 21 21 13 21 -2 0 -10 -8 -17
-17z"/>
<path d="M1336 5267 c3 -10 9 -15 12 -12 3 3 0 11 -7 18 -10 9 -11 8 -5 -6z"/>
<path d="M1447 5260 c9 -11 19 -17 21 -15 6 6 -18 35 -29 35 -5 0 -1 -9 8 -20z"/>
<path d="M4550 5270 c-13 -8 -12 -10 3 -10 9 0 17 5 17 10 0 12 -1 12 -20 0z"/>
<path d="M1377 5233 c4 -10 2 -14 -5 -9 -6 3 -15 -2 -21 -11 -5 -10 -13 -17
-18 -15 -4 2 -9 -2 -11 -10 -2 -9 0 -8 7 2 6 8 11 11 11 5 0 -5 6 -3 13 6 7 9
17 16 22 17 13 1 19 32 6 32 -6 0 -7 -7 -4 -17z"/>
<path d="M4570 5240 c0 -5 10 -14 21 -21 13 -6 19 -7 15 -1 -3 6 0 13 6 16 7
3 2 3 -11 0 -16 -4 -21 -3 -17 5 4 6 2 11 -3 11 -6 0 -11 -4 -11 -10z"/>
<path d="M1306 5218 c3 -5 10 -6 15 -3 13 9 11 12 -6 12 -8 0 -12 -4 -9 -9z"/>
<path d="M1396 5213 c-6 -14 -5 -15 5 -6 7 7 10 15 7 18 -3 3 -9 -2 -12 -12z"/>
<path d="M1350 5180 c-14 -10 -23 -21 -20 -23 3 -2 16 6 30 19 30 29 25 31
-10 4z"/>
<path d="M4740 5180 c8 -5 20 -10 25 -10 6 0 3 5 -5 10 -8 5 -19 10 -25 10 -5
0 -3 -5 5 -10z"/>
<path d="M1260 5171 c0 -6 4 -13 10 -16 6 -3 7 1 4 9 -7 18 -14 21 -14 7z"/>
<path d="M1297 5163 c-10 -10 -8 -23 4 -23 5 0 8 4 5 9 -4 5 0 12 6 14 7 3 8
6 2 6 -6 1 -14 -2 -17 -6z"/>
<path d="M4678 5163 c7 -3 16 -2 19 1 4 3 -2 6 -13 5 -11 0 -14 -3 -6 -6z"/>
<path d="M4713 5158 c-13 -6 -23 -15 -23 -20 0 -5 11 -1 25 8 37 24 35 30 -2
12z"/>
<path d="M1210 5145 c0 -5 5 -17 10 -25 5 -8 10 -10 10 -5 0 6 -5 17 -10 25
-5 8 -10 11 -10 5z"/>
<path d="M1236 5139 c3 -5 9 -7 14 -4 5 3 11 -3 14 -12 4 -15 5 -15 3 1 -1 11
-10 20 -20 22 -9 1 -15 -2 -11 -7z"/>
<path d="M1180 5126 c0 -2 7 -9 15 -16 9 -7 15 -8 15 -2 0 5 -7 12 -15 16 -8
3 -15 4 -15 2z"/>
<path d="M4782 5116 c10 -7 14 -17 10 -21 -4 -5 -1 -5 6 -1 19 11 14 23 -10
29 -21 5 -21 5 -6 -7z"/>
<path d="M1153 5101 c1 -3 -4 -16 -11 -28 -17 -32 -10 -29 15 5 15 20 17 29 8
29 -8 0 -13 -3 -12 -6z"/>
<path d="M1224 5095 c-18 -14 -18 -14 4 -8 12 3 22 9 22 14 0 12 -3 11 -26 -6z"/>
<path d="M4810 5080 c0 -5 5 -10 10 -10 6 0 10 5 10 10 0 6 -4 10 -10 10 -5 0
-10 -4 -10 -10z"/>
<path d="M1155 5050 c-3 -11 -10 -20 -15 -20 -4 0 -11 -7 -14 -15 -5 -13 -2
-13 17 2 13 9 24 25 24 35 2 24 -4 23 -12 -2z"/>
<path d="M4790 5056 c0 -2 7 -7 16 -10 8 -3 12 -2 9 4 -6 10 -25 14 -25 6z"/>
<path d="M4864 5050 c1 -7 6 -12 11 -12 6 -1 15 -7 20 -14 7 -10 14 -11 25 -3
13 9 13 10 -2 6 -9 -3 -19 1 -22 9 -3 9 -10 13 -15 10 -5 -4 -12 -1 -14 4 -4
7 -5 6 -3 0z"/>
<path d="M1081 5034 c0 -11 3 -14 6 -6 3 7 2 16 -1 19 -3 4 -6 -2 -5 -13z"/>
<path d="M1111 5034 c0 -11 3 -14 6 -6 3 7 2 16 -1 19 -3 4 -6 -2 -5 -13z"/>
<path d="M1072 4999 c-20 -7 -23 -29 -5 -29 4 0 3 3 -1 7 -3 4 6 12 21 19 32
14 19 17 -15 3z"/>
<path d="M4930 4998 c0 -4 4 -8 9 -8 6 0 12 4 15 8 3 5 -1 9 -9 9 -8 0 -15 -4
-15 -9z"/>
<path d="M1089 4973 c-13 -17 -13 -17 6 -3 11 8 22 16 24 17 2 2 0 3 -6 3 -6
0 -17 -8 -24 -17z"/>
<path d="M974 4966 c1 -8 5 -18 8 -22 4 -3 5 1 4 10 -1 8 -5 18 -8 22 -4 3 -5
-1 -4 -10z"/>
<path d="M1036 4965 c4 -8 11 -15 16 -15 6 0 5 6 -2 15 -7 8 -14 15 -16 15 -2
0 -1 -7 2 -15z"/>
<path d="M4950 4970 c0 -5 5 -10 11 -10 5 0 7 5 4 10 -3 6 -8 10 -11 10 -2 0
-4 -4 -4 -10z"/>
<path d="M4986 4958 c3 -5 10 -6 15 -3 13 9 11 12 -6 12 -8 0 -12 -4 -9 -9z"/>
<path d="M4935 4941 c-6 -11 13 -26 22 -17 4 3 1 6 -6 6 -7 0 -9 5 -6 10 3 6
4 10 1 10 -3 0 -7 -4 -11 -9z"/>
<path d="M4968 4942 c8 -5 12 -11 11 -13 -6 -9 20 -43 28 -36 11 11 11 57 1
50 -5 -2 -6 -14 -2 -26 5 -18 4 -20 -7 -9 -8 7 -14 18 -14 24 0 6 -7 13 -15
15 -12 4 -12 3 -2 -5z"/>
<path d="M5033 4927 c0 -8 6 -14 14 -14 9 0 10 4 2 14 -6 7 -12 13 -14 13 -1
0 -2 -6 -2 -13z"/>
<path d="M948 4898 c10 -13 10 -17 0 -21 -8 -4 -7 -6 5 -6 9 -1 17 3 17 8 0 5
-8 15 -17 22 -16 13 -17 12 -5 -3z"/>
<path d="M984 4891 c13 -15 14 -20 4 -24 -7 -3 -8 -6 -2 -6 6 -1 18 7 25 16
10 12 10 14 1 9 -7 -4 -15 -1 -18 8 -3 9 -11 16 -17 16 -5 0 -2 -9 7 -19z"/>
<path d="M919 4898 c-6 -12 -5 -48 1 -48 4 0 7 11 6 25 -1 22 -3 30 -7 23z"/>
<path d="M5020 4880 c0 -5 5 -10 10 -10 6 0 10 5 10 10 0 6 -4 10 -10 10 -5 0
-10 -4 -10 -10z"/>
<path d="M5045 4860 c-4 -6 -11 -7 -17 -4 -7 4 -8 2 -4 -4 5 -9 13 -9 27 -2
10 6 19 13 19 15 0 9 -19 5 -25 -5z"/>
<path d="M5063 4843 c-12 -13 -19 -23 -14 -23 10 0 46 39 40 43 -2 2 -14 -7
-26 -20z"/>
<path d="M950 4850 c-13 -8 -12 -10 3 -10 9 0 17 5 17 10 0 12 -1 12 -20 0z"/>
<path d="M870 4838 c0 -4 4 -8 9 -8 6 0 12 4 15 8 3 5 -1 9 -9 9 -8 0 -15 -4
-15 -9z"/>
<path d="M5100 4837 c0 -9 -5 -16 -11 -14 -6 1 -13 -4 -14 -11 -2 -7 -1 -8 2
-2 2 5 9 8 14 4 11 -6 25 24 15 33 -3 4 -6 -1 -6 -10z"/>
<path d="M926 4815 c-4 -13 -10 -14 -26 -5 -11 6 -20 8 -20 6 0 -3 8 -10 19
-15 14 -8 23 -6 36 9 10 11 13 20 8 20 -6 0 -14 -7 -17 -15z"/>
<path d="M5110 4805 c-7 -9 -10 -18 -6 -22 3 -3 6 -1 6 6 0 7 4 10 8 7 5 -3 9
1 9 9 0 19 -2 19 -17 0z"/>
<path d="M857 4795 c-8 -20 9 -28 30 -15 16 9 15 10 -4 5 -18 -5 -22 -3 -17 9
3 9 4 16 1 16 -3 0 -7 -7 -10 -15z"/>
<path d="M5134 4775 c-3 -8 -4 -20 -1 -27 3 -7 6 -2 6 11 1 21 3 22 19 10 15
-13 16 -12 3 4 -16 21 -20 21 -27 2z"/>
<path d="M820 4766 c0 -2 7 -6 15 -10 8 -3 15 -1 15 4 0 6 -7 10 -15 10 -8 0
-15 -2 -15 -4z"/>
<path d="M5146 4734 c-8 -21 -8 -24 5 -24 5 0 8 4 4 9 -3 6 3 14 12 20 16 9
16 10 2 11 -9 0 -20 -7 -23 -16z"/>
<path d="M5196 4738 c3 -5 10 -6 15 -3 13 9 11 12 -6 12 -8 0 -12 -4 -9 -9z"/>
<path d="M5200 4716 c0 -2 7 -7 16 -10 8 -3 12 -2 9 4 -6 10 -25 14 -25 6z"/>
<path d="M775 4700 c3 -5 8 -10 11 -10 2 0 4 5 4 10 0 6 -5 10 -11 10 -5 0 -7
-4 -4 -10z"/>
<path d="M5170 4699 c0 -5 5 -7 10 -4 6 3 10 8 10 11 0 2 -4 4 -10 4 -5 0 -10
-5 -10 -11z"/>
<path d="M750 4696 c0 -2 8 -10 18 -17 15 -13 16 -12 3 4 -13 16 -21 21 -21
13z"/>
<path d="M5189 4683 c-13 -16 -12 -17 4 -4 9 7 17 15 17 17 0 8 -8 3 -21 -13z"/>
<path d="M797 4683 c-10 -9 -9 -23 1 -23 5 0 9 7 9 15 0 17 -1 18 -10 8z"/>
<path d="M5204 4667 l-19 -22 21 18 c17 14 23 15 27 5 2 -7 7 -10 11 -7 4 3 0
11 -7 18 -11 8 -18 6 -33 -12z"/>
<path d="M715 4659 c-3 -4 2 -6 10 -5 21 3 28 13 10 13 -9 0 -18 -4 -20 -8z"/>
<path d="M5215 4640 c3 -5 8 -10 11 -10 2 0 4 5 4 10 0 6 -5 10 -11 10 -5 0
-7 -4 -4 -10z"/>
<path d="M5271 4633 c7 -12 15 -20 18 -17 3 2 -3 12 -13 22 -17 16 -18 16 -5
-5z"/>
<path d="M5234 4615 c-4 -9 -4 -19 0 -22 3 -4 6 1 6 10 0 10 5 17 10 17 6 0 9
-5 8 -11 -2 -6 4 -14 12 -16 12 -4 12 -3 2 5 -8 5 -13 13 -12 18 3 16 -20 16
-26 -1z"/>
<path d="M666 4602 c-3 -5 1 -9 9 -9 8 0 12 4 9 9 -3 4 -7 8 -9 8 -2 0 -6 -4
-9 -8z"/>
<path d="M5295 4600 c-3 -5 -3 -10 2 -11 4 0 -1 -5 -12 -10 -19 -8 -19 -9 -1
-6 11 1 20 10 22 20 3 19 -2 22 -11 7z"/>
<path d="M695 4581 c-3 -5 0 -13 6 -17 8 -5 9 -3 4 6 -6 10 -4 12 8 7 10 -3
17 -2 17 3 0 13 -27 13 -35 1z"/>
<path d="M639 4568 c-6 -20 -6 -39 0 -42 4 -3 7 6 7 20 0 20 -4 32 -7 22z"/>
<path d="M676 4557 c3 -10 9 -15 12 -12 3 3 0 11 -7 18 -10 9 -11 8 -5 -6z"/>
<path d="M5298 4548 c6 -6 18 -8 28 -6 14 3 12 5 -9 10 -19 3 -25 2 -19 -4z"/>
<path d="M670 4520 c-12 -7 -10 -9 7 -7 12 0 19 5 17 9 -6 10 -6 10 -24 -2z"/>
<path d="M5330 4516 c0 -23 16 -27 31 -8 13 16 13 16 -5 2 -18 -14 -19 -13
-13 3 3 9 2 17 -3 17 -6 0 -10 -6 -10 -14z"/>
<path d="M595 4511 c-3 -5 -2 -12 3 -15 5 -3 9 1 9 9 0 17 -3 19 -12 6z"/>
<path d="M5360 4479 c0 -5 5 -7 10 -4 6 3 10 8 10 11 0 2 -4 4 -10 4 -5 0 -10
-5 -10 -11z"/>
<path d="M5373 4453 c-3 -10 -8 -22 -11 -27 -3 -5 0 -6 6 -2 7 4 12 14 12 23
0 13 2 14 18 2 15 -13 16 -12 3 4 -7 9 -15 17 -18 17 -2 0 -6 -8 -10 -17z"/>
<path d="M590 4440 c0 -6 7 -10 15 -10 8 0 15 2 15 4 0 2 -7 6 -15 10 -8 3
-15 1 -15 -4z"/>
<path d="M5426 4438 c3 -5 10 -6 15 -3 13 9 11 12 -6 12 -8 0 -12 -4 -9 -9z"/>
<path d="M5390 4420 c0 -5 7 -7 15 -4 8 4 15 8 15 10 0 2 -7 4 -15 4 -8 0 -15
-4 -15 -10z"/>
<path d="M613 4413 c-15 -5 -17 -23 -4 -23 5 0 11 7 15 15 3 8 4 15 3 14 -1 0
-8 -3 -14 -6z"/>
<path d="M545 4400 c-3 -5 -1 -10 4 -10 6 0 11 5 11 10 0 6 -2 10 -4 10 -3 0
-8 -4 -11 -10z"/>
<path d="M5414 4393 c2 -9 8 -18 15 -19 6 -1 7 0 2 2 -6 3 -7 12 -4 20 3 8 1
14 -5 14 -6 0 -9 -8 -8 -17z"/>
<path d="M575 4391 c-6 -11 13 -26 22 -17 4 3 1 6 -6 6 -7 0 -9 5 -6 10 3 6 4
10 1 10 -3 0 -7 -4 -11 -9z"/>
<path d="M5459 4378 c-1 -7 0 -20 1 -27 2 -13 -1 -13 -17 0 -16 13 -17 13 -4
-3 17 -22 29 -16 29 17 0 26 -7 35 -9 13z"/>
<path d="M544 4358 c9 -14 13 -28 9 -31 -3 -4 -1 -7 6 -7 8 0 10 7 6 20 -5 16
-3 19 12 13 10 -3 15 -3 11 1 -3 4 -12 8 -20 10 -7 1 -19 5 -27 10 -9 6 -8 1
3 -16z"/>
<path d="M5489 4363 c-13 -16 -12 -17 4 -4 16 13 21 21 13 21 -2 0 -10 -8 -17
-17z"/>
<path d="M512 4365 c4 -4 4 -13 -2 -19 -6 -8 -2 -12 13 -13 12 0 16 1 9 4 -6
3 -10 9 -7 13 3 5 0 12 -7 16 -7 4 -10 4 -6 -1z"/>
<path d="M5431 4323 c7 -12 15 -20 18 -17 3 2 -3 12 -13 22 -17 16 -18 16 -5
-5z"/>
<path d="M5465 4320 c-3 -6 1 -7 9 -4 18 7 21 14 7 14 -6 0 -13 -4 -16 -10z"/>
<path d="M5472 4301 c-11 -6 -10 -10 4 -15 9 -3 19 -4 22 -1 3 3 0 5 -7 5 -7
0 -9 5 -6 10 7 12 4 12 -13 1z"/>
<path d="M455 4280 c-3 -5 -1 -10 4 -10 6 0 11 5 11 10 0 6 -2 10 -4 10 -3 0
-8 -4 -11 -10z"/>
<path d="M5468 4264 c12 -8 20 -19 17 -23 -2 -5 5 -17 16 -27 18 -16 19 -16
13 -1 -3 9 -10 17 -14 17 -5 0 -7 9 -5 20 2 11 0 18 -5 15 -5 -3 -11 -1 -15 5
-3 5 -11 10 -18 10 -6 0 -1 -7 11 -16z"/>
<path d="M446 4242 c-2 -4 9 -8 25 -8 33 -2 33 4 1 11 -12 2 -24 1 -26 -3z"/>
<path d="M5524 4238 c-4 -5 -3 -12 0 -15 3 -4 6 -1 6 6 0 7 4 10 9 6 5 -3 12
-2 15 3 3 5 -2 9 -10 9 -8 0 -17 -4 -20 -9z"/>
<path d="M500 4220 c-9 -6 -10 -10 -3 -10 6 0 15 5 18 10 8 12 4 12 -15 0z"/>
<path d="M475 4202 c4 -16 3 -22 -6 -20 -7 2 -15 -5 -17 -14 -2 -10 1 -18 7
-18 6 0 7 8 4 18 -6 15 -4 15 9 4 14 -11 16 -10 14 13 -2 14 -7 29 -11 33 -4
4 -4 -3 0 -16z"/>
<path d="M5550 4201 c0 -6 4 -13 10 -16 6 -3 7 1 4 9 -7 18 -14 21 -14 7z"/>
<path d="M435 4139 c6 -9 3 -11 -8 -6 -24 9 -21 0 4 -14 17 -9 20 -8 14 2 -6
9 -3 11 8 6 24 -9 21 0 -4 14 -17 9 -20 8 -14 -2z"/>
<path d="M5552 4141 c-11 -6 -10 -10 4 -15 9 -4 22 -2 28 4 8 8 6 9 -8 4 -13
-5 -17 -4 -12 4 8 14 6 15 -12 3z"/>
<path d="M5595 4121 c-3 -5 -2 -12 3 -15 5 -3 9 1 9 9 0 17 -3 19 -12 6z"/>
<path d="M410 4090 c-7 -14 -7 -20 0 -20 5 0 10 7 10 16 0 9 5 12 12 8 7 -4 8
-3 4 4 -10 16 -14 15 -26 -8z"/>
<path d="M5557 4103 c-4 -3 -7 -11 -7 -17 0 -6 5 -5 12 2 6 6 9 14 7 17 -3 3
-9 2 -12 -2z"/>
<path d="M5581 4082 c-1 -15 -5 -21 -13 -16 -7 5 -8 3 -3 -5 10 -18 28 2 22
25 -4 15 -5 14 -6 -4z"/>
<path d="M5610 4070 c6 -11 13 -20 16 -20 2 0 0 9 -6 20 -6 11 -13 20 -16 20
-2 0 0 -9 6 -20z"/>
<path d="M370 4060 c-9 -6 -10 -10 -3 -10 6 0 15 5 18 10 8 12 4 12 -15 0z"/>
<path d="M5618 4017 c-22 -17 -26 -25 -18 -37 9 -13 10 -13 8 1 -2 9 8 26 22
37 14 12 23 21 20 22 -3 0 -17 -10 -32 -23z"/>
<path d="M336 4018 c3 -4 11 -5 19 -1 21 7 19 12 -4 10 -11 0 -18 -5 -15 -9z"/>
<path d="M5630 4000 c-9 -6 -10 -10 -3 -10 6 0 15 5 18 10 8 12 4 12 -15 0z"/>
<path d="M350 3981 c0 -9 30 -24 36 -18 2 1 -6 8 -16 15 -11 7 -20 8 -20 3z"/>
<path d="M310 3962 c0 -5 7 -9 15 -9 8 0 12 4 9 9 -3 4 -9 8 -15 8 -5 0 -9 -4
-9 -8z"/>
<path d="M5617 3963 c-10 -10 -8 -23 4 -23 5 0 7 5 3 12 -5 8 -2 9 9 5 10 -3
17 -2 17 3 0 11 -23 13 -33 3z"/>
<path d="M5654 3939 c-4 -7 -3 -9 4 -5 5 3 13 0 15 -6 4 -9 6 -10 6 -1 1 17
-16 25 -25 12z"/>
<path d="M330 3931 c0 -7 -4 -10 -8 -7 -4 2 -9 -5 -9 -16 -2 -21 -2 -21 14 1
8 12 12 25 9 28 -3 4 -6 1 -6 -6z"/>
<path d="M5625 3920 c3 -5 8 -10 11 -10 2 0 4 5 4 10 0 6 -5 10 -11 10 -5 0
-7 -4 -4 -10z"/>
<path d="M5693 3915 c0 -8 4 -12 9 -9 5 3 6 10 3 15 -9 13 -12 11 -12 -6z"/>
<path d="M5643 3897 c-3 -6 -1 -7 5 -3 6 3 12 -3 14 -16 3 -22 4 -22 9 3 6 26
-15 37 -28 16z"/>
<path d="M310 3860 c0 -5 5 -10 10 -10 6 0 10 5 10 10 0 6 -4 10 -10 10 -5 0
-10 -4 -10 -10z"/>
<path d="M5690 3851 c0 -6 4 -13 10 -16 6 -3 7 1 4 9 -7 18 -14 21 -14 7z"/>
<path d="M285 3840 c-3 -5 -1 -10 4 -10 6 0 11 5 11 10 0 6 -2 10 -4 10 -3 0
-8 -4 -11 -10z"/>
<path d="M315 3829 c-4 -6 -5 -12 -2 -15 2 -3 7 2 10 11 7 17 1 20 -8 4z"/>
<path d="M273 3805 c0 -7 6 -11 14 -8 7 3 13 6 13 8 0 2 -6 5 -13 8 -8 3 -14
-1 -14 -8z"/>
<path d="M5697 3805 c-4 -8 -3 -16 1 -19 4 -3 9 4 9 15 2 23 -3 25 -10 4z"/>
<path d="M5730 3780 c-9 -6 -10 -10 -3 -10 6 0 15 5 18 10 8 12 4 12 -15 0z"/>
<path d="M5687 3760 c10 -11 27 -20 38 -19 17 1 16 2 -5 9 -14 4 -20 9 -15 9
6 1 3 6 -5 11 -25 16 -31 11 -13 -10z"/>
<path d="M271 3753 c7 -12 15 -20 18 -17 3 2 -3 12 -13 22 -17 16 -18 16 -5
-5z"/>
<path d="M260 3735 c0 -5 5 -17 10 -25 5 -8 10 -10 10 -5 0 6 -5 17 -10 25 -5
8 -10 11 -10 5z"/>
<path d="M5730 3716 c0 -8 4 -17 9 -20 5 -4 7 3 4 14 -6 23 -13 26 -13 6z"/>
<path d="M235 3710 c3 -5 8 -10 11 -10 2 0 4 5 4 10 0 6 -5 10 -11 10 -5 0 -7
-4 -4 -10z"/>
<path d="M250 3678 c0 -3 9 -6 20 -5 11 1 20 5 20 9 0 3 -9 6 -20 5 -11 -1
-20 -5 -20 -9z"/>
<path d="M5717 3671 c-5 -20 9 -41 28 -41 5 0 3 5 -7 10 -10 6 -14 18 -11 30
3 11 3 20 0 20 -2 0 -7 -9 -10 -19z"/>
<path d="M5747 3667 c-6 -15 28 -17 40 -1 5 5 4 6 -1 2 -5 -4 -15 -3 -21 2 -9
7 -14 6 -18 -3z"/>
<path d="M217 3659 c7 -7 15 -10 18 -7 3 3 -2 9 -12 12 -14 6 -15 5 -6 -5z"/>
<path d="M270 3645 c0 -8 2 -15 4 -15 2 0 6 7 10 15 3 8 1 15 -4 15 -6 0 -10
-7 -10 -15z"/>
<path d="M5750 3611 c0 -6 5 -13 12 -17 6 -4 8 -3 4 4 -3 5 0 13 6 15 8 3 6 6
-4 6 -10 1 -18 -3 -18 -8z"/>
<path d="M216 3595 c4 -8 8 -15 10 -15 2 0 4 7 4 15 0 8 -4 15 -10 15 -5 0 -7
-7 -4 -15z"/>
<path d="M196 3573 c-6 -14 -5 -15 5 -6 7 7 10 15 7 18 -3 3 -9 -2 -12 -12z"/>
<path d="M5775 3580 c-3 -5 -1 -10 4 -10 6 0 11 5 11 10 0 6 -2 10 -4 10 -3 0
-8 -4 -11 -10z"/>
<path d="M5740 3560 c0 -5 3 -9 8 -9 20 3 32 -2 26 -13 -5 -7 -3 -8 6 -3 10 6
9 11 -5 22 -22 16 -35 17 -35 3z"/>
<path d="M216 3536 c6 -15 4 -17 -6 -11 -9 6 -11 4 -5 -4 5 -9 10 -10 18 -2 8
8 7 14 -2 24 -10 10 -11 8 -5 -7z"/>
<path d="M5793 3515 c0 -8 4 -12 9 -9 4 3 8 9 8 15 0 5 -4 9 -8 9 -5 0 -9 -7
-9 -15z"/>
<path d="M197 3475 c-14 -20 -15 -24 -2 -19 8 3 15 10 15 16 0 5 4 6 10 3 6
-3 7 1 4 9 -7 20 -5 20 -27 -9z"/>
<path d="M5791 3471 c-18 -14 -21 -20 -11 -26 9 -6 11 -4 5 5 -6 10 -4 12 11
6 10 -4 15 -4 11 0 -4 4 -2 13 4 21 16 18 9 16 -20 -6z"/>
<path d="M220 3450 c-9 -6 -10 -10 -3 -10 6 0 15 5 18 10 8 12 4 12 -15 0z"/>
<path d="M170 3423 c0 -6 8 -17 18 -24 16 -13 16 -13 2 6 -8 11 -16 22 -17 24
-2 2 -3 0 -3 -6z"/>
<path d="M200 3420 c20 -13 33 -13 25 0 -3 6 -14 10 -23 10 -15 0 -15 -2 -2
-10z"/>
<path d="M5765 3420 c-3 -5 -2 -10 4 -10 5 0 13 5 16 10 3 6 2 10 -4 10 -5 0
-13 -4 -16 -10z"/>
<path d="M5795 3400 c3 -6 1 -10 -6 -10 -7 0 -10 -3 -6 -6 3 -3 13 -2 22 4 16
8 16 9 1 15 -10 4 -15 3 -11 -3z"/>
<path d="M210 3391 c0 -6 4 -13 10 -16 6 -3 7 1 4 9 -7 18 -14 21 -14 7z"/>
<path d="M5810 3371 c-8 -6 -18 -7 -24 -4 -5 4 -6 1 -2 -6 5 -7 10 -10 14 -7
3 3 10 -1 16 -9 9 -13 11 -11 11 10 0 14 0 25 0 25 0 0 -7 -4 -15 -9z"/>
<path d="M156 3361 c-3 -5 1 -14 8 -20 10 -9 16 -9 21 -1 4 6 1 9 -7 8 -7 -2
-12 3 -10 10 2 14 -4 16 -12 3z"/>
<path d="M200 3360 c0 -5 5 -10 11 -10 5 0 7 5 4 10 -3 6 -8 10 -11 10 -2 0
-4 -4 -4 -10z"/>
<path d="M190 3320 c0 -5 7 -7 15 -4 8 4 15 8 15 10 0 2 -7 4 -15 4 -8 0 -15
-4 -15 -10z"/>
<path d="M155 3290 c-4 -6 -11 -7 -17 -4 -7 4 -8 2 -4 -5 6 -9 11 -9 22 0 14
11 18 19 10 19 -3 0 -8 -5 -11 -10z"/>
<path d="M186 3285 c-3 -8 -1 -15 4 -15 6 0 10 7 10 15 0 8 -2 15 -4 15 -2 0
-6 -7 -10 -15z"/>
<path d="M5793 3256 c0 -11 1 -15 4 -8 3 6 9 10 13 7 5 -3 7 -12 4 -19 -8 -22
12 -28 27 -8 13 16 12 16 -4 3 -16 -13 -19 -13 -17 0 4 25 0 37 -13 42 -8 3
-13 -3 -14 -17z"/>
<path d="M155 3260 c-3 -5 -1 -10 4 -10 6 0 11 5 11 10 0 6 -2 10 -4 10 -3 0
-8 -4 -11 -10z"/>
<path d="M190 3250 c-9 -6 -10 -10 -3 -10 6 0 15 5 18 10 8 12 4 12 -15 0z"/>
<path d="M5840 3199 c0 -5 5 -7 10 -4 6 3 10 8 10 11 0 2 -4 4 -10 4 -5 0 -10
-5 -10 -11z"/>
<path d="M5820 3191 c0 -7 -5 -9 -12 -5 -7 5 -8 3 -3 -5 5 -9 10 -10 18 -2 6
6 8 14 4 18 -4 3 -7 1 -7 -6z"/>
<path d="M155 3149 c-4 -6 -5 -12 -2 -15 2 -3 7 2 10 11 7 17 1 20 -8 4z"/>
<path d="M5830 3145 c0 -5 5 -17 10 -25 5 -8 10 -10 10 -5 0 6 -5 17 -10 25
-5 8 -10 11 -10 5z"/>
<path d="M5804 3125 c3 -20 26 -44 26 -27 0 7 -5 12 -11 12 -5 0 -8 4 -4 9 3
5 1 12 -4 15 -5 4 -8 -1 -7 -9z"/>
<path d="M5830 3069 c0 -5 5 -7 10 -4 6 3 10 8 10 11 0 2 -4 4 -10 4 -5 0 -10
-5 -10 -11z"/>
<path d="M147 3054 c2 -7 11 -10 19 -7 19 7 18 10 -5 16 -13 3 -18 1 -14 -9z"/>
<path d="M5814 3046 c11 -9 24 -16 30 -16 12 0 7 5 -24 19 -24 11 -24 11 -6
-3z"/>
<path d="M177 3029 c7 -7 15 -10 18 -7 3 3 -2 9 -12 12 -14 6 -15 5 -6 -5z"/>
<path d="M140 3026 c0 -2 7 -9 15 -16 9 -7 15 -8 15 -2 0 5 -7 12 -15 16 -8 3
-15 4 -15 2z"/>
<path d="M5808 3023 c6 -2 9 -10 6 -15 -4 -7 -2 -8 5 -4 13 9 5 26 -12 25 -9
0 -8 -2 1 -6z"/>
<path d="M5819 2984 c-6 -8 -9 -17 -5 -21 3 -3 6 -1 6 6 0 7 4 10 8 7 4 -2 14
-1 21 3 10 7 9 9 -2 14 -9 3 -21 -1 -28 -9z"/>
<path d="M130 2979 c0 -5 5 -7 10 -4 6 3 10 8 10 11 0 2 -4 4 -10 4 -5 0 -10
-5 -10 -11z"/>
<path d="M170 2979 c0 -5 5 -7 10 -4 6 3 10 8 10 11 0 2 -4 4 -10 4 -5 0 -10
-5 -10 -11z"/>
<path d="M162 2950 c7 -11 17 -20 22 -20 5 0 1 9 -9 20 -10 11 -20 20 -22 20
-2 0 2 -9 9 -20z"/>
<path d="M5840 2960 c-9 -6 -10 -10 -3 -10 6 0 15 5 18 10 8 12 4 12 -15 0z"/>
<path d="M5852 2920 c0 -14 2 -19 5 -12 2 6 2 18 0 25 -3 6 -5 1 -5 -13z"/>
<path d="M5826 2894 c-8 -20 -8 -24 2 -24 4 0 8 9 9 20 2 24 -3 26 -11 4z"/>
<path d="M5831 2849 c-22 -20 -22 -22 -4 -39 10 -9 20 -15 23 -13 3 3 -3 10
-12 17 -16 12 -15 14 5 34 28 28 18 29 -12 1z"/>
<path d="M150 2841 c0 -6 4 -13 10 -16 6 -3 7 1 4 9 -7 18 -14 21 -14 7z"/>
<path d="M129 2803 c-8 -9 -9 -14 -2 -10 6 4 13 1 16 -5 3 -7 4 -3 4 10 -1 26
-1 26 -18 5z"/>
<path d="M5807 2799 c7 -7 15 -10 18 -7 3 3 -2 9 -12 12 -14 6 -15 5 -6 -5z"/>
<path d="M5856 2773 c-6 -14 -5 -15 5 -6 7 7 10 15 7 18 -3 3 -9 -2 -12 -12z"/>
<path d="M146 2758 c3 -4 9 -8 15 -8 5 0 9 4 9 8 0 5 -7 9 -15 9 -8 0 -12 -4
-9 -9z"/>
<path d="M153 2705 c0 -8 4 -15 9 -15 4 0 8 4 8 9 0 6 -4 12 -8 15 -5 3 -9 -1
-9 -9z"/>
<path d="M5830 2686 c0 -2 7 -7 16 -10 8 -3 12 -2 9 4 -6 10 -25 14 -25 6z"/>
<path d="M166 2645 c-9 -14 -12 -25 -7 -25 5 0 13 9 16 20 4 11 11 17 17 14 7
-4 8 -2 4 4 -10 16 -11 16 -30 -13z"/>
<path d="M5853 2632 c-1 -22 0 -24 9 -8 6 10 6 22 2 26 -5 5 -10 -3 -11 -18z"/>
<path d="M5810 2630 c9 -17 30 -20 30 -4 0 3 -4 2 -10 -1 -5 -3 -10 1 -10 9 0
9 -5 16 -10 16 -7 0 -7 -7 0 -20z"/>
<path d="M190 2631 c0 -6 4 -13 10 -16 6 -3 7 1 4 9 -7 18 -14 21 -14 7z"/>
<path d="M5793 2604 c0 -17 2 -22 7 -13 5 6 6 18 3 26 -8 19 -10 16 -10 -13z"/>
<path d="M170 2600 c0 -5 5 -10 10 -10 6 0 10 5 10 10 0 6 -4 10 -10 10 -5 0
-10 -4 -10 -10z"/>
<path d="M5830 2589 c0 -5 -6 -7 -12 -3 -7 4 -9 3 -5 -1 13 -15 36 -14 30 1
-6 17 -13 18 -13 3z"/>
<path d="M5783 2547 c-2 -19 -1 -20 8 -5 6 11 16 15 27 11 9 -3 14 -3 11 1 -4
4 -15 8 -26 10 -14 3 -19 -2 -20 -17z"/>
<path d="M5801 2533 c-1 -6 -4 -20 -7 -30 -5 -17 -5 -17 6 0 6 10 9 23 6 30
-3 9 -5 9 -5 0z"/>
<path d="M190 2515 c0 -8 2 -15 4 -15 2 0 6 7 10 15 3 8 1 15 -4 15 -6 0 -10
-7 -10 -15z"/>
<path d="M5833 2505 c0 -8 4 -12 9 -9 5 3 6 10 3 15 -9 13 -12 11 -12 -6z"/>
<path d="M170 2478 c0 -6 3 -8 7 -5 3 4 12 2 20 -5 7 -6 16 -8 20 -4 3 3 1 6
-6 6 -7 0 -10 4 -7 8 2 4 -4 9 -15 9 -10 1 -19 -3 -19 -9z"/>
<path d="M174 2449 c-3 -6 -2 -15 3 -20 5 -5 9 -1 9 11 0 23 -2 24 -12 9z"/>
<path d="M5766 2445 c3 -7 12 -16 19 -19 9 -3 12 0 9 9 -3 7 -12 16 -19 19 -9
3 -12 0 -9 -9z"/>
<path d="M5805 2440 c3 -5 8 -10 11 -10 2 0 4 5 4 10 0 6 -5 10 -11 10 -5 0
-7 -4 -4 -10z"/>
<path d="M193 2403 c4 -3 1 -13 -6 -21 -11 -13 -9 -14 10 -2 22 14 22 30 1 30
-6 0 -8 -3 -5 -7z"/>
<path d="M196 2362 c-3 -5 1 -9 9 -9 8 0 15 4 15 9 0 4 -4 8 -9 8 -6 0 -12 -4
-15 -8z"/>
<path d="M230 2341 c0 -6 4 -13 10 -16 6 -3 7 1 4 9 -7 18 -14 21 -14 7z"/>
<path d="M5746 2331 c-4 -5 3 -7 14 -4 23 6 26 13 6 13 -8 0 -17 -4 -20 -9z"/>
<path d="M194 2322 c4 -3 14 -7 22 -8 9 -1 13 0 10 4 -4 3 -14 7 -22 8 -9 1
-13 0 -10 -4z"/>
<path d="M230 2300 c-11 -7 -11 -10 -2 -10 7 0 10 -4 7 -10 -3 -6 1 -7 10 -4
10 4 15 2 13 -6 -2 -7 3 -14 10 -15 7 -2 8 -1 2 2 -5 2 -8 9 -4 14 3 5 -2 12
-10 15 -9 3 -13 10 -10 15 7 11 3 11 -16 -1z"/>
<path d="M5750 2300 c0 -5 7 -7 15 -4 8 4 15 8 15 10 0 2 -7 4 -15 4 -8 0 -15
-4 -15 -10z"/>
<path d="M5734 2274 c1 -9 11 -21 22 -26 18 -9 18 -8 2 5 -10 8 -15 16 -12 19
3 4 1 9 -4 12 -6 3 -9 -1 -8 -10z"/>
<path d="M215 2251 c-3 -5 -2 -12 3 -15 5 -3 9 1 9 9 0 17 -3 19 -12 6z"/>
<path d="M259 2223 c-1 -5 -1 -16 0 -25 2 -12 -4 -16 -19 -13 -11 2 -18 0 -15
-5 10 -17 40 -3 39 19 0 15 4 20 13 17 8 -3 11 -1 8 4 -7 12 -24 13 -26 3z"/>
<path d="M5766 2218 c3 -5 10 -6 15 -3 13 9 11 12 -6 12 -8 0 -12 -4 -9 -9z"/>
<path d="M5735 2210 c-7 -11 22 -26 32 -16 4 3 -1 6 -11 6 -9 0 -14 5 -11 10
3 6 4 10 1 10 -3 0 -8 -5 -11 -10z"/>
<path d="M290 2169 c0 -5 -6 -7 -12 -4 -7 4 -5 0 4 -8 10 -8 14 -18 10 -22 -4
-5 -2 -5 5 -2 6 4 9 16 6 27 -6 21 -13 27 -13 9z"/>
<path d="M250 2139 c0 -5 5 -7 10 -4 6 3 10 8 10 11 0 2 -4 4 -10 4 -5 0 -10
-5 -10 -11z"/>
<path d="M5753 2135 c0 -8 4 -12 9 -9 5 3 6 10 3 15 -9 13 -12 11 -12 -6z"/>
<path d="M5731 2124 c0 -11 3 -14 6 -6 3 7 2 16 -1 19 -3 4 -6 -2 -5 -13z"/>
<path d="M266 2122 c-3 -4 4 -9 15 -9 23 -2 25 3 4 10 -8 4 -16 3 -19 -1z"/>
<path d="M5702 2117 c-9 -10 -6 -17 8 -30 11 -9 20 -12 20 -7 0 6 -7 13 -15
16 -12 5 -13 10 -4 20 6 8 9 14 6 14 -2 0 -9 -6 -15 -13z"/>
<path d="M304 2085 c-3 -14 -11 -22 -17 -18 -6 3 -7 1 -3 -6 9 -14 26 -5 26
15 0 8 4 12 10 9 6 -3 7 1 4 9 -8 22 -13 20 -20 -9z"/>
<path d="M5674 2079 c-9 -16 2 -22 21 -11 15 8 16 10 1 15 -8 3 -18 2 -22 -4z"/>
<path d="M5715 2040 c-3 -5 -1 -10 4 -10 6 0 11 5 11 10 0 6 -2 10 -4 10 -3 0
-8 -4 -11 -10z"/>
<path d="M301 2010 c7 -14 12 -28 11 -32 -1 -5 3 -8 8 -8 15 0 12 12 -11 40
l-20 25 12 -25z"/>
<path d="M335 2020 c-8 -13 3 -30 18 -30 8 0 7 3 -2 9 -7 5 -10 14 -7 20 4 6
5 11 2 11 -3 0 -8 -4 -11 -10z"/>
<path d="M5677 2023 c-10 -10 -8 -33 3 -33 5 0 6 7 3 17 -5 12 -3 14 7 8 9 -5
11 -4 6 3 -8 14 -10 14 -19 5z"/>
<path d="M5640 1979 c-13 -9 -12 -10 3 -5 12 4 17 0 18 -17 1 -18 2 -19 6 -3
6 24 -8 38 -27 25z"/>
<path d="M340 1966 c0 -2 7 -6 15 -10 8 -3 15 -1 15 4 0 6 -7 10 -15 10 -8 0
-15 -2 -15 -4z"/>
<path d="M339 1948 c-8 -27 -5 -36 9 -30 10 4 12 7 4 10 -7 2 -10 8 -6 13 3 5
3 9 0 9 -3 0 -6 -1 -7 -2z"/>
<path d="M5630 1874 c0 -9 -5 -12 -12 -8 -7 4 -8 3 -4 -4 9 -16 36 -3 29 14
-7 18 -13 18 -13 -2z"/>
<path d="M361 1868 c9 -7 14 -19 12 -25 -6 -18 4 -16 11 2 3 9 -3 19 -17 25
-19 10 -20 9 -6 -2z"/>
<path d="M5588 1853 c6 -2 10 -8 8 -12 -3 -4 1 -8 9 -8 11 0 12 4 4 14 -6 7
-17 13 -23 12 -7 0 -6 -2 2 -6z"/>
<path d="M405 1840 c3 -5 1 -10 -6 -10 -7 0 -10 -2 -7 -5 8 -9 38 6 32 16 -3
5 -10 9 -15 9 -6 0 -7 -4 -4 -10z"/>
<path d="M5570 1820 c0 -5 5 -10 11 -10 5 0 7 5 4 10 -3 6 -8 10 -11 10 -2 0
-4 -4 -4 -10z"/>
<path d="M373 1806 c0 -8 5 -12 10 -9 7 4 8 -1 3 -13 -6 -15 -5 -17 5 -6 11
10 10 15 -2 28 -14 13 -16 13 -16 0z"/>
<path d="M5592 1804 c-11 -12 -9 -13 7 -11 11 2 24 7 28 12 5 4 3 5 -4 2 -6
-4 -13 -3 -15 2 -1 5 -9 3 -16 -5z"/>
<path d="M410 1802 c0 -4 9 -13 20 -20 23 -14 26 -7 6 14 -16 15 -26 18 -26 6z"/>
<path d="M416 1767 c3 -10 9 -15 12 -12 3 3 0 11 -7 18 -10 9 -11 8 -5 -6z"/>
<path d="M435 1744 c-12 -10 -14 -14 -5 -11 8 2 24 0 35 -5 18 -8 19 -8 3 5
-10 8 -15 17 -11 20 12 13 -2 6 -22 -9z"/>
<path d="M5523 1729 c-12 -12 3 -59 19 -59 5 0 1 11 -7 24 -15 23 -15 25 2 35
10 6 13 11 8 11 -6 0 -16 -5 -22 -11z"/>
<path d="M5549 1720 c-6 -4 1 -7 15 -7 14 0 26 3 26 7 0 3 -7 7 -15 7 -8 0
-19 -4 -26 -7z"/>
<path d="M433 1685 c0 -7 6 -11 14 -8 7 3 13 6 13 8 0 2 -6 5 -13 8 -8 3 -14
-1 -14 -8z"/>
<path d="M5486 1663 c-6 -14 -5 -15 5 -6 7 7 10 15 7 18 -3 3 -9 -2 -12 -12z"/>
<path d="M495 1660 c3 -5 11 -10 16 -10 6 0 7 5 4 10 -3 6 -11 10 -16 10 -6 0
-7 -4 -4 -10z"/>
<path d="M470 1640 c0 -6 7 -13 15 -16 8 -4 12 -11 8 -17 -4 -6 -1 -7 7 -2 10
6 10 11 -3 20 -9 7 -14 15 -10 18 3 4 1 7 -5 7 -7 0 -12 -5 -12 -10z"/>
<path d="M5519 1618 c-5 -18 -6 -38 -1 -34 7 8 12 36 6 36 -2 0 -4 -1 -5 -2z"/>
<path d="M515 1600 c-3 -5 -2 -10 4 -10 5 0 13 5 16 10 3 6 2 10 -4 10 -5 0
-13 -4 -16 -10z"/>
<path d="M5452 1598 c3 -7 13 -13 24 -14 16 -1 16 0 1 3 -9 3 -15 9 -12 14 4
5 1 9 -5 9 -7 0 -10 -6 -8 -12z"/>
<path d="M501 1570 c14 -31 19 -36 19 -24 0 6 -7 19 -16 30 -14 18 -14 18 -3
-6z"/>
<path d="M535 1579 c-4 -6 -4 -13 -1 -16 3 -4 6 -1 6 6 0 7 5 9 12 5 7 -4 8
-3 4 4 -9 15 -13 15 -21 1z"/>
<path d="M5413 1518 c2 -7 -5 -18 -16 -24 -17 -10 -18 -12 -3 -17 10 -4 15 -3
11 2 -3 5 0 11 7 13 14 5 20 38 6 38 -5 0 -8 -6 -5 -12z"/>
<path d="M575 1500 c-3 -5 -3 -10 2 -11 4 0 -1 -5 -12 -10 l-20 -9 20 3 c11 2
19 9 18 15 -3 14 13 16 22 3 3 -5 1 -12 -5 -16 -5 -3 -10 -11 -10 -18 0 -6 6
-2 14 9 10 13 11 23 4 31 -13 16 -25 17 -33 3z"/>
<path d="M529 1483 c-13 -16 -12 -17 4 -4 9 7 17 15 17 17 0 8 -8 3 -21 -13z"/>
<path d="M5438 1483 c7 -3 16 -2 19 1 4 3 -2 6 -13 5 -11 0 -14 -3 -6 -6z"/>
<path d="M5365 1460 c-3 -6 1 -7 9 -4 18 7 21 14 7 14 -6 0 -13 -4 -16 -10z"/>
<path d="M5415 1460 c-4 -6 1 -7 11 -3 13 5 15 3 9 -7 -5 -9 -4 -11 4 -6 6 4
9 12 6 17 -8 12 -22 12 -30 -1z"/>
<path d="M5385 1440 c3 -5 8 -10 11 -10 2 0 4 5 4 10 0 6 -5 10 -11 10 -5 0
-7 -4 -4 -10z"/>
<path d="M5360 1418 c-12 -8 -11 -9 4 -4 13 4 17 2 13 -7 -3 -8 -2 -20 3 -26
5 -9 8 -4 8 13 0 31 -9 38 -28 24z"/>
<path d="M5325 1399 c-4 -6 -4 -13 -1 -16 3 -4 6 0 6 7 0 9 7 7 23 -6 l22 -19
-19 23 c-22 25 -23 26 -31 11z"/>
<path d="M590 1376 c7 -7 13 -7 20 0 6 6 3 10 -10 10 -13 0 -16 -4 -10 -10z"/>
<path d="M644 1359 c-3 -6 -2 -15 4 -21 6 -6 12 -6 17 3 6 8 4 10 -5 4 -10 -6
-12 -4 -7 8 7 19 2 23 -9 6z"/>
<path d="M5306 1355 c-9 -26 -7 -32 5 -12 6 10 9 21 6 23 -2 3 -7 -2 -11 -11z"/>
<path d="M5330 1360 c0 -5 5 -10 10 -10 6 0 10 5 10 10 0 6 -4 10 -10 10 -5 0
-10 -4 -10 -10z"/>
<path d="M5275 1330 c-3 -5 -1 -10 4 -10 6 0 11 5 11 10 0 6 -2 10 -4 10 -3 0
-8 -4 -11 -10z"/>
<path d="M5316 1325 c-3 -8 -1 -15 4 -15 6 0 10 7 10 15 0 8 -2 15 -4 15 -2 0
-6 -7 -10 -15z"/>
<path d="M673 1315 c0 -7 6 -11 14 -8 7 3 13 6 13 8 0 2 -6 5 -13 8 -8 3 -14
-1 -14 -8z"/>
<path d="M5260 1302 c0 -7 5 -12 12 -12 6 0 3 -9 -7 -20 -25 -28 -11 -25 20 4
18 17 22 26 14 32 -8 4 -9 3 -5 -4 9 -16 -7 -15 -22 0 -9 9 -12 9 -12 0z"/>
<path d="M680 1286 c0 -2 7 -7 16 -10 8 -3 12 -2 9 4 -6 10 -25 14 -25 6z"/>
<path d="M5235 1280 c-3 -5 -1 -10 4 -10 6 0 11 5 11 10 0 6 -2 10 -4 10 -3 0
-8 -4 -11 -10z"/>
<path d="M763 1245 c-3 -9 -3 -18 -1 -21 3 -3 8 4 11 16 6 23 -1 27 -10 5z"/>
<path d="M5231 1244 c0 -11 3 -14 6 -6 3 7 2 16 -1 19 -3 4 -6 -2 -5 -13z"/>
<path d="M5276 1235 c-9 -26 -7 -32 5 -12 6 10 9 21 6 23 -2 3 -7 -2 -11 -11z"/>
<path d="M5210 1221 c0 -5 7 -15 17 -22 15 -13 15 -12 4 9 -12 23 -21 28 -21
13z"/>
<path d="M5192 1200 c0 -14 2 -19 5 -12 2 6 2 18 0 25 -3 6 -5 1 -5 -13z"/>
<path d="M823 1187 c19 -16 24 -32 5 -21 -7 5 -8 3 -4 -5 5 -7 10 -10 14 -7 3
3 11 -2 17 -11 14 -19 8 -46 -8 -36 -6 4 -7 1 -2 -7 6 -10 11 -10 20 4 11 14
14 15 25 1 7 -9 15 -13 18 -10 3 2 -7 14 -21 25 -14 11 -29 29 -32 40 -4 11
-16 25 -28 31 -20 9 -20 9 -4 -4z"/>
<path d="M780 1180 c0 -6 4 -9 9 -6 5 4 12 1 14 -4 3 -6 4 -5 3 2 -3 15 -26
23 -26 8z"/>
<path d="M5212 1185 c4 -4 3 -14 -3 -22 -13 -15 -33 -18 -24 -3 3 6 1 10 -4
10 -16 0 -13 -20 4 -26 8 -4 12 -11 8 -18 -3 -6 -3 -8 1 -4 4 3 6 8 4 11 -1 3
5 14 15 25 15 16 16 22 5 28 -7 4 -10 4 -6 -1z"/>
<path d="M755 1160 c-3 -5 -1 -10 4 -10 6 0 11 5 11 10 0 6 -2 10 -4 10 -3 0
-8 -4 -11 -10z"/>
<path d="M813 1143 c4 -6 2 -13 -5 -15 -8 -3 -6 -6 4 -10 17 -7 19 15 3 29 -4
4 -5 3 -2 -4z"/>
<path d="M5130 1146 c0 -2 6 -9 14 -15 11 -9 16 -9 22 0 4 8 3 9 -4 5 -7 -4
-12 -2 -12 3 0 6 -4 11 -10 11 -5 0 -10 -2 -10 -4z"/>
<path d="M5101 1114 c-7 -8 -11 -17 -8 -20 2 -2 10 2 17 11 11 14 14 13 25 -1
9 -14 14 -14 20 -4 5 8 4 11 -2 7 -6 -4 -13 0 -17 8 -7 19 -17 19 -35 -1z"/>
<path d="M870 1080 c0 -5 5 -10 10 -10 6 0 10 5 10 10 0 6 -4 10 -10 10 -5 0
-10 -4 -10 -10z"/>
<path d="M913 1082 c-9 -5 -3 -13 20 -26 32 -17 32 -17 10 2 -12 11 -19 22
-16 26 9 8 1 7 -14 -2z"/>
<path d="M5110 1080 c0 -5 5 -10 10 -10 6 0 10 5 10 10 0 6 -4 10 -10 10 -5 0
-10 -4 -10 -10z"/>
<path d="M5155 1081 c-3 -5 -2 -12 3 -15 5 -3 9 1 9 9 0 17 -3 19 -12 6z"/>
<path d="M5065 1064 c-9 -9 -14 -23 -10 -31 4 -11 1 -13 -10 -9 -9 3 -13 2
-10 -4 6 -9 -8 -14 -28 -11 -5 1 -6 -3 -2 -8 3 -6 -4 -15 -15 -21 -21 -11 -27
-30 -9 -30 5 0 7 5 4 10 -3 6 -1 11 4 11 6 1 17 2 24 3 6 1 11 8 9 15 -2 9 3
11 13 7 9 -3 14 -2 11 3 -3 5 1 11 9 15 8 3 12 12 9 20 -3 8 5 21 18 30 12 9
17 16 11 16 -6 0 -19 -7 -28 -16z"/>
<path d="M898 1038 c3 -13 7 -17 10 -10 2 7 8 10 13 6 5 -3 9 -3 9 0 0 3 -9
10 -19 15 -17 9 -18 8 -13 -11z"/>
<path d="M5080 1042 c0 -5 7 -9 15 -9 8 0 12 4 9 9 -3 4 -9 8 -15 8 -5 0 -9
-4 -9 -8z"/>
<path d="M935 1021 c-9 -8 -5 -31 5 -31 5 0 6 7 3 17 -4 9 -2 14 3 10 6 -3 16
-2 24 3 11 7 9 9 -8 7 -13 -1 -25 -3 -27 -6z"/>
<path d="M956 958 c3 -5 10 -6 15 -3 13 9 11 12 -6 12 -8 0 -12 -4 -9 -9z"/>
<path d="M5030 961 c0 -6 4 -13 10 -16 6 -3 7 1 4 9 -7 18 -14 21 -14 7z"/>
<path d="M5000 940 c-8 -5 -12 -12 -9 -15 4 -3 12 1 19 10 14 17 11 19 -10 5z"/>
<path d="M1036 913 c-6 -14 -5 -15 5 -6 7 7 10 15 7 18 -3 3 -9 -2 -12 -12z"/>
<path d="M1068 913 c-16 -19 -13 -47 4 -37 7 4 6 9 -2 14 -9 5 -9 10 -1 14 14
9 50 -51 46 -75 -2 -11 0 -19 6 -19 5 0 7 14 4 32 -5 27 -4 30 10 18 10 -8 15
-9 15 -1 0 6 -5 11 -11 11 -5 0 -7 6 -3 13 6 9 4 9 -8 -1 -14 -11 -17 -10 -23
7 -3 12 -11 21 -16 21 -6 0 -7 5 -4 10 10 16 -1 11 -17 -7z"/>
<path d="M4910 901 c0 -6 8 -7 18 -4 14 6 15 4 5 -8 -10 -13 -10 -16 1 -16 19
0 13 31 -7 35 -10 2 -17 -1 -17 -7z"/>
<path d="M4842 863 c-5 -10 -7 -24 -5 -31 3 -8 -1 -10 -14 -6 -14 6 -15 4 -6
-6 13 -14 36 -4 30 13 -2 7 0 20 5 30 5 9 6 17 4 17 -3 0 -9 -8 -14 -17z"/>
<path d="M4860 846 c0 -2 7 -7 16 -10 8 -3 12 -2 9 4 -6 10 -25 14 -25 6z"/>
<path d="M1164 808 c3 -15 26 -23 26 -8 0 6 -4 9 -9 6 -5 -4 -12 -1 -14 4 -3
6 -4 5 -3 -2z"/>
<path d="M4790 811 c0 -5 5 -13 10 -16 6 -3 10 -2 10 4 0 5 -4 13 -10 16 -5 3
-10 2 -10 -4z"/>
<path d="M1210 800 c0 -5 5 -10 11 -10 5 0 7 5 4 10 -3 6 -8 10 -11 10 -2 0
-4 -4 -4 -10z"/>
<path d="M1147 779 c7 -7 15 -10 18 -7 3 3 -2 9 -12 12 -14 6 -15 5 -6 -5z"/>
<path d="M1233 775 c-3 -9 -3 -19 1 -22 3 -4 6 1 6 11 0 10 5 14 12 10 7 -4 8
-3 4 4 -10 16 -15 15 -23 -3z"/>
<path d="M4816 781 c-4 -5 3 -7 14 -4 23 6 26 13 6 13 -8 0 -17 -4 -20 -9z"/>
<path d="M1180 776 c0 -2 7 -6 15 -10 8 -3 15 -1 15 4 0 6 -7 10 -15 10 -8 0
-15 -2 -15 -4z"/>
<path d="M1251 753 c-1 -17 16 -25 25 -12 4 7 3 9 -4 5 -5 -3 -13 0 -15 6 -4
9 -6 10 -6 1z"/>
<path d="M4790 750 c0 -5 5 -10 11 -10 5 0 7 5 4 10 -3 6 -8 10 -11 10 -2 0
-4 -4 -4 -10z"/>
<path d="M4717 709 c7 -7 15 -10 18 -7 3 3 -2 9 -12 12 -14 6 -15 5 -6 -5z"/>
<path d="M4634 702 c3 -5 0 -13 -6 -15 -8 -3 -6 -6 5 -6 19 -1 23 14 5 25 -6
4 -8 3 -4 -4z"/>
<path d="M1302 684 c10 -10 20 -16 22 -13 3 3 -5 11 -17 18 -21 13 -21 12 -5
-5z"/>
<path d="M4660 686 c0 -2 8 -10 18 -17 15 -13 16 -12 3 4 -13 16 -21 21 -21
13z"/>
<path d="M4594 668 c1 -7 12 -14 24 -14 12 -1 19 3 16 8 -3 5 -12 7 -19 4 -8
-3 -16 -1 -19 5 -2 5 -3 4 -2 -3z"/>
<path d="M4715 671 c-3 -5 -2 -12 3 -15 5 -3 9 1 9 9 0 17 -3 19 -12 6z"/>
<path d="M4654 663 c3 -6 -2 -16 -11 -22 -16 -9 -16 -10 3 -8 21 1 26 19 9 34
-4 4 -5 3 -1 -4z"/>
<path d="M1410 649 c0 -5 5 -7 10 -4 6 3 10 8 10 11 0 2 -4 4 -10 4 -5 0 -10
-5 -10 -11z"/>
<path d="M1370 640 c8 -5 20 -10 25 -10 6 0 3 5 -5 10 -8 5 -19 10 -25 10 -5
0 -3 -5 5 -10z"/>
<path d="M1437 643 c-4 -3 -7 -11 -7 -17 0 -6 5 -5 12 2 6 6 9 14 7 17 -3 3
-9 2 -12 -2z"/>
<path d="M4536 629 c2 -4 -4 -10 -13 -12 -15 -4 -15 -5 -2 -6 9 0 22 5 28 12
8 10 7 14 -4 14 -8 0 -12 -4 -9 -8z"/>
<path d="M1455 620 c-3 -5 -1 -10 4 -10 6 0 11 5 11 10 0 6 -2 10 -4 10 -3 0
-8 -4 -11 -10z"/>
<path d="M1478 602 c-4 -13 -4 -21 -1 -18 3 3 20 -2 37 -10 28 -14 29 -14 12
1 -11 8 -23 15 -27 15 -4 0 -9 8 -11 18 -3 13 -5 12 -10 -6z"/>
<path d="M4547 606 c-17 -13 -16 -14 6 -12 15 0 23 6 20 14 -6 14 -4 15 -26
-2z"/>
<path d="M4590 611 c0 -6 4 -12 8 -15 5 -3 9 1 9 9 0 8 -4 15 -9 15 -4 0 -8
-4 -8 -9z"/>
<path d="M1427 579 c7 -7 15 -10 18 -7 3 3 -2 9 -12 12 -14 6 -15 5 -6 -5z"/>
<path d="M4457 570 c-9 -11 -12 -20 -7 -20 6 0 13 7 16 15 4 8 10 12 15 9 5
-3 9 0 9 5 0 17 -14 13 -33 -9z"/>
<path d="M1551 570 c0 -8 4 -22 9 -30 12 -18 12 -2 0 25 -6 13 -9 15 -9 5z"/>
<path d="M4420 570 c-8 -5 -10 -10 -5 -10 6 0 17 5 25 10 8 5 11 10 5 10 -5 0
-17 -5 -25 -10z"/>
<path d="M4553 565 c0 -8 4 -12 9 -9 5 3 6 10 3 15 -9 13 -12 11 -12 -6z"/>
<path d="M4495 559 c-4 -6 -4 -13 -1 -16 3 -4 6 -1 6 6 0 7 5 9 10 6 6 -3 10
-1 10 4 0 14 -17 14 -25 0z"/>
<path d="M1536 537 c3 -10 9 -15 12 -12 3 3 0 11 -7 18 -10 9 -11 8 -5 -6z"/>
<path d="M4405 541 c-3 -6 3 -9 14 -8 11 0 17 5 15 9 -7 11 -22 10 -29 -1z"/>
<path d="M1575 521 c-3 -5 0 -13 6 -17 8 -4 9 -3 5 4 -11 18 5 14 19 -5 9 -13
14 -13 20 -3 5 8 4 11 -2 7 -6 -4 -13 0 -17 8 -6 17 -22 20 -31 6z"/>
<path d="M4390 510 c0 -5 5 -10 11 -10 5 0 7 5 4 10 -3 6 -8 10 -11 10 -2 0
-4 -4 -4 -10z"/>
<path d="M4428 503 c7 -3 16 -2 19 1 4 3 -2 6 -13 5 -11 0 -14 -3 -6 -6z"/>
<path d="M1655 490 c-4 -6 -10 -8 -14 -6 -4 3 -8 -1 -8 -9 0 -13 3 -13 18 1
10 9 23 13 28 9 6 -3 11 -1 11 4 0 14 -27 14 -35 1z"/>
<path d="M1697 476 c-3 -9 4 -21 19 -30 13 -9 24 -12 24 -6 0 5 -5 10 -11 10
-5 0 -7 4 -4 10 3 6 -1 7 -10 4 -11 -5 -14 -2 -9 10 3 9 4 16 1 16 -3 0 -7 -6
-10 -14z"/>
<path d="M4280 475 c-7 -9 -11 -17 -9 -20 3 -2 10 5 17 15 14 24 10 26 -8 5z"/>
<path d="M4340 480 c-9 -6 -10 -10 -3 -10 6 0 15 5 18 10 8 12 4 12 -15 0z"/>
<path d="M1744 468 c3 -15 26 -23 26 -8 0 6 -4 9 -9 6 -5 -4 -12 -1 -14 4 -3
6 -4 5 -3 -2z"/>
<path d="M4295 457 c-6 -20 -2 -47 6 -42 4 3 5 14 2 25 -4 16 -2 19 11 14 9
-3 16 -4 16 -1 0 12 -31 16 -35 4z"/>
<path d="M4235 439 c-4 -6 -4 -13 -1 -16 3 -4 6 -1 6 5 0 7 5 12 11 12 5 0 7
-5 3 -12 -4 -7 -3 -8 5 -4 12 8 6 26 -9 26 -5 0 -12 -5 -15 -11z"/>
<path d="M1808 433 c-10 -2 -18 -9 -18 -14 0 -6 8 -5 20 1 11 6 20 13 20 15 0
3 -1 4 -2 4 -2 -1 -11 -3 -20 -6z"/>
<path d="M1753 411 c0 -11 5 -18 9 -15 4 3 5 11 1 19 -7 21 -12 19 -10 -4z"/>
<path d="M1865 400 c-3 -5 -1 -10 4 -10 6 0 11 5 11 10 0 6 -2 10 -4 10 -3 0
-8 -4 -11 -10z"/>
<path d="M4210 399 c0 -5 5 -7 10 -4 6 3 10 8 10 11 0 2 -4 4 -10 4 -5 0 -10
-5 -10 -11z"/>
<path d="M1833 375 c0 -8 4 -12 9 -9 4 3 8 9 8 15 0 5 -4 9 -8 9 -5 0 -9 -7
-9 -15z"/>
<path d="M4135 379 c-4 -6 -5 -12 -2 -15 2 -3 7 2 10 11 7 17 1 20 -8 4z"/>
<path d="M1937 366 c-5 -12 -3 -15 5 -10 8 5 9 1 4 -12 -5 -14 -4 -16 4 -7 8
7 9 17 3 28 -9 16 -10 16 -16 1z"/>
<path d="M1977 355 c-6 -15 10 -32 20 -21 4 3 1 6 -5 6 -6 0 -9 7 -6 15 4 8 4
15 1 15 -3 0 -7 -7 -10 -15z"/>
<path d="M4060 360 c8 -5 20 -10 25 -10 6 0 3 5 -5 10 -8 5 -19 10 -25 10 -5
0 -3 -5 5 -10z"/>
<path d="M1913 335 c0 -8 4 -12 9 -9 5 3 6 10 3 15 -9 13 -12 11 -12 -6z"/>
<path d="M3954 334 c-18 -14 -18 -15 4 -4 13 6 22 7 22 1 0 -5 -5 -11 -12 -13
-8 -3 -7 -6 3 -10 10 -4 15 1 16 13 2 26 -11 31 -33 13z"/>
<path d="M3920 332 c0 -6 -8 -9 -17 -6 -15 5 -16 4 -3 -5 16 -11 40 3 27 16
-4 3 -7 1 -7 -5z"/>
<path d="M2040 320 c0 -5 5 -10 10 -10 6 0 10 5 10 10 0 6 -4 10 -10 10 -5 0
-10 -4 -10 -10z"/>
<path d="M2095 320 c-8 -13 4 -32 16 -24 5 3 18 0 27 -8 15 -11 15 -11 5 3 -7
9 -9 19 -5 24 4 4 -4 2 -17 -5 -21 -11 -23 -10 -18 4 7 18 2 22 -8 6z"/>
<path d="M1995 311 c-3 -5 -2 -12 3 -15 5 -3 9 1 9 9 0 17 -3 19 -12 6z"/>
<path d="M3856 309 c3 -5 14 -9 24 -9 14 0 18 -5 14 -17 -5 -15 -4 -15 4 -3
14 18 8 27 -23 32 -13 3 -22 1 -19 -3z"/>
<path d="M2070 303 c0 -6 8 -17 18 -24 16 -13 16 -13 2 6 -8 11 -16 22 -17 24
-2 2 -3 0 -3 -6z"/>
<path d="M2176 292 c-2 -4 -1 -14 4 -22 7 -11 9 -9 7 8 -1 24 -3 26 -11 14z"/>
<path d="M3760 290 c-9 -6 -10 -10 -3 -10 6 0 15 5 18 10 8 12 4 12 -15 0z"/>
<path d="M3832 291 c-10 -6 -9 -10 7 -14 12 -3 24 0 28 5 3 6 1 8 -5 4 -5 -3
-12 -2 -14 4 -2 5 -9 6 -16 1z"/>
<path d="M2229 279 c-12 -8 -12 -9 1 -7 8 1 25 -3 38 -10 29 -17 28 -9 -1 11
-16 10 -28 12 -38 6z"/>
<path d="M3711 273 c-1 -17 19 -27 31 -15 6 6 6 12 -3 17 -8 5 -10 4 -5 -3 4
-7 3 -12 -3 -12 -5 0 -12 6 -14 13 -4 9 -6 9 -6 0z"/>
<path d="M2156 249 c9 -10 21 -16 25 -13 13 8 11 14 -3 12 -7 -2 -12 2 -11 8
1 6 -5 11 -13 11 -12 0 -11 -4 2 -18z"/>
<path d="M2334 255 c-3 -8 -4 -20 -1 -27 3 -7 6 -2 6 11 1 23 2 23 19 8 21
-20 32 -22 32 -6 0 5 -4 7 -10 4 -5 -3 -10 -2 -10 3 0 17 -30 22 -36 7z"/>
<path d="M3660 258 c0 -4 4 -8 9 -8 6 0 12 4 15 8 3 5 -1 9 -9 9 -8 0 -15 -4
-15 -9z"/>
<path d="M2241 244 c0 -11 3 -14 6 -6 3 7 2 16 -1 19 -3 4 -6 -2 -5 -13z"/>
<path d="M2301 244 c0 -11 3 -14 6 -6 3 7 2 16 -1 19 -3 4 -6 -2 -5 -13z"/>
<path d="M3634 241 c3 -5 -1 -12 -10 -15 -13 -5 -14 -9 -4 -21 7 -8 17 -15 23
-15 6 0 3 6 -7 13 -17 12 -17 14 -2 20 18 7 22 27 5 27 -5 0 -8 -4 -5 -9z"/>
<path d="M3706 235 c10 -8 23 -15 28 -15 6 0 1 7 -10 15 -10 8 -23 15 -28 15
-6 0 -1 -7 10 -15z"/>
<path d="M3775 240 c3 -5 8 -10 11 -10 2 0 4 5 4 10 0 6 -5 10 -11 10 -5 0 -7
-4 -4 -10z"/>
<path d="M3514 230 c-29 -11 -35 -23 -23 -40 9 -13 10 -13 6 0 -2 9 8 22 27
32 33 18 26 23 -10 8z"/>
<path d="M3585 227 c-15 -12 -16 -15 -4 -22 8 -5 11 -5 7 0 -4 4 0 14 10 21
23 18 11 18 -13 1z"/>
<path d="M3668 228 c5 -5 16 -8 23 -6 8 3 3 7 -10 11 -17 4 -21 3 -13 -5z"/>
<path d="M2287 219 c7 -7 15 -10 18 -7 3 3 -2 9 -12 12 -14 6 -15 5 -6 -5z"/>
<path d="M2350 220 c0 -5 5 -10 11 -10 5 0 7 5 4 10 -3 6 -8 10 -11 10 -2 0
-4 -4 -4 -10z"/>
<path d="M2439 223 c0 -5 -2 -16 -4 -25 -2 -10 0 -20 4 -22 3 -2 7 9 7 25 1
16 0 29 -2 29 -2 0 -4 -3 -5 -7z"/>
<path d="M2480 215 c-14 -8 -20 -14 -14 -15 5 0 19 7 30 15 24 18 16 19 -16 0z"/>
<path d="M3550 205 c0 -8 4 -15 10 -15 5 0 7 7 4 15 -4 8 -8 15 -10 15 -2 0
-4 -7 -4 -15z"/>
<path d="M2501 200 c-9 -5 -4 -7 13 -7 29 0 32 2 13 10 -8 3 -20 2 -26 -3z"/>
<path d="M2695 193 c1 -12 10 -17 24 -16 15 2 20 -1 15 -9 -4 -7 -3 -8 4 -4 7
4 12 2 12 -5 0 -7 3 -9 6 -6 13 13 -18 38 -39 31 -12 -4 -17 -2 -13 4 3 6 2
13 -3 16 -5 4 -8 -2 -6 -11z"/>
<path d="M2624 185 c-10 -8 -14 -14 -9 -15 15 0 40 18 34 24 -3 3 -14 -1 -25
-9z"/>
<path d="M2758 190 c7 -8 17 -16 23 -16 5 -1 12 -2 16 -3 4 0 -2 -8 -13 -17
-18 -15 -18 -15 2 -5 12 6 25 7 29 3 5 -4 0 5 -11 20 -10 14 -21 22 -22 17 -2
-6 -11 -4 -20 3 -15 10 -15 10 -4 -2z"/>
<path d="M2811 194 c-1 -6 5 -17 12 -23 10 -8 14 -7 14 4 0 8 -4 12 -8 9 -4
-2 -10 2 -12 8 -4 8 -6 9 -6 2z"/>
<path d="M2855 180 c-3 -5 -1 -10 4 -10 6 0 11 5 11 10 0 6 -2 10 -4 10 -3 0
-8 -4 -11 -10z"/>
<path d="M2930 182 c0 -5 -10 -14 -22 -20 -23 -10 -23 -10 -2 -9 22 1 54 37
34 37 -5 0 -10 -4 -10 -8z"/>
<path d="M3374 182 c5 -8 -1 -12 -16 -13 -18 -1 -19 -2 -4 -6 23 -6 43 12 25
22 -8 5 -10 4 -5 -3z"/>
<path d="M3595 180 c3 -5 8 -10 11 -10 2 0 4 5 4 10 0 6 -5 10 -11 10 -5 0 -7
-4 -4 -10z"/>
<path d="M3053 162 c1 -12 6 -18 15 -15 7 3 10 9 5 12 -4 3 -11 10 -15 15 -4
4 -6 -1 -5 -12z"/>
<path d="M2550 166 c0 -2 7 -7 16 -10 8 -3 12 -2 9 4 -6 10 -25 14 -25 6z"/>
<path d="M2645 160 c-2 -3 7 -6 21 -6 13 0 24 3 24 7 0 9 -40 8 -45 -1z"/>
<path d="M2970 161 c0 -6 4 -12 8 -15 5 -3 9 1 9 9 0 8 -4 15 -9 15 -4 0 -8
-4 -8 -9z"/>
<path d="M3093 155 c0 -8 4 -12 9 -9 4 3 8 9 8 15 0 5 -4 9 -8 9 -5 0 -9 -7
-9 -15z"/>
<path d="M3294 159 c-3 -6 -2 -15 3 -20 5 -5 9 -1 9 11 0 23 -2 24 -12 9z"/>
<path d="M2855 150 c-3 -6 1 -7 9 -4 18 7 21 14 7 14 -6 0 -13 -4 -16 -10z"/>
<path d="M3148 143 c7 -3 16 -2 19 1 4 3 -2 6 -13 5 -11 0 -14 -3 -6 -6z"/>
<path d="M2950 126 c0 -2 7 -7 16 -10 8 -3 12 -2 9 4 -6 10 -25 14 -25 6z"/>
</g>
</svg>
